<svg xmlns="http://www.w3.org/2000/svg" viewBox="0 0 84.39 77.62"><defs><style>.cls-1{fill:#ffe82c;}</style></defs><g id="Lager_2" data-name="Lager 2"><g id="_ÎÓÈ_1" data-name="—ÎÓÈ_1"><path class="cls-1" d="M23,69.9c-1.39,0,.12-2.5.33-2.86a4.44,4.44,0,0,0,.35-4.32,7.44,7.44,0,0,0-2.41-3.24c-1.45-1-2.81,1.33-3.7,2.27-1.27,1.34-2.56,2.67-3.85,4-.41.43-.9,1.29-1.56,1a1.13,1.13,0,0,1-.42-1.57c.67-1.43,2.42-2.8,3.48-4S17.33,59,18.45,57.9c-2-2.08-5.4-1.69-8-1.64-.71,0-2.18.09-2-1.09s1.85-1,2.65-1a28.16,28.16,0,0,1,4.68.3A14.55,14.55,0,0,1,17.9,55a10.27,10.27,0,0,0,2.25.87c1.09.11,1.91-1.12,2.47-1.9s.12-.83-.46-1.5c-.42-.48-2.34-2.1-1.27-2.66s2.65,1.38,3.31,1.87c.28.2.32.33.59.31.52,0,1.33-1,1.7-1.32l4.48-4,8.15-7.27c.85-.76,2.83-1.84,2.34-3.18a5.64,5.64,0,0,0-1.06-1.35l-3.18-3.7c-2.29-2.67-4.89-5.25-6.7-8.27-.48.64-1.77,3.14-2.81,2.15-.61-.58-.23-1.79-.09-2.46a3.78,3.78,0,0,0-.15-2.71,11.7,11.7,0,0,0-1.81-2c-.62-.68-1.18-1.42-1.83-2.07s-1-1-1.85-.7a12.44,12.44,0,0,0-2.72,1.74,21.06,21.06,0,0,1-3.68,2.49c-1.32.47-2.57-1.43-3.49-2.28-.49-.46-1.25-1-1.52-1.58s-.2-1.07.51-1.13c.9-.08,1.83,1,2.43,1.55,1.63,1.44,2.3,1.19,4,0,.75-.54,3.7-1.87,3.67-2.91,0-1.5-4.64-4-3-5.5,1.23-1.16,2.92,1.94,3.46,2.76.37.56.74,1.36,1.46,1.55s1.73-.54,2.38-1c1-.66,4-2.06,3.8-3.45s-2.09-2.4-2.63-3.7c-.28-.66-.19-1.34.68-1.14.62.14,1.08.89,1.48,1.35a8,8,0,0,0,2,2.08c.6.3,1.91-.12,2.31.33s-.38,1.81-.75,2.17A14.38,14.38,0,0,1,29.65,10c-1.81,1.12-3.44,2.51-5.13,3.79l3.81,4c.27-.87.42-2.38,1-3,.26-.29,1.07-.63,1.44-.42.68.39,0,2.22-.06,2.82a7.05,7.05,0,0,0-.14,3.16c.56,1.77,2.46,3.32,3.61,4.73,2.48,3.05,5.08,6,7.74,8.89.22.24,1.07,1.48,1.37,1.5s.59-.38.84-.59c1.34-1.15,2.67-2.31,4-3.5,3-2.75,6-5.53,9-8.29,1-.9,2-1.55,1.19-2.86-.35-.54-2.49-2.54-1.73-3.19s2.38,1.15,2.86,1.58c.15.15.78,1,1,1s1.35-.83,1.6-1c1.28-1.05.88-1.85.35-3.24a10.43,10.43,0,0,1-.6-5.47C62.1,8,63,5.65,64.5,4.45c.47-.36,1.58-1.17,2.09-.54S66.11,5.59,65.76,6A8.5,8.5,0,0,0,65,15.35c2.21-1.19,3.85-3.07,5.61-4.85.61-.62,1.19-1.29,1.82-1.88s2.44-1.45,2.4.21c0,1.39-1.55,2.29-2.46,3.13-1.28,1.2-2.57,2.38-3.83,3.6-.3.29-1.31,1.07-1.34,1.5s.48.71.72.93a6.38,6.38,0,0,0,4.21,1.58c1.74,0,3.39-1,4.9-1.78.94-.48,2.56-1.88,3.64-1.56,1.87.56-.75,2.18-1.41,2.49A55.06,55.06,0,0,1,74,20.94a7.09,7.09,0,0,1-4.68.16C68,20.68,66.4,19,65,19.07c-.91,0-2,1.18-2.38,1.94-.1.2-.34.35-.31.54s.9,1,1.08,1.16c.63.69,2.22,2,.44,2.52C62.5,25.63,62,24,61,23.51c-1.19-.65-2.27.77-3.08,1.49-1.41,1.27-2.8,2.58-4.18,3.89s-2.82,2.68-4.29,4a25.54,25.54,0,0,0-3.74,3.53c-.72,1-.13,1.6.57,2.41,1.08,1.24,2.18,2.44,3.25,3.68,1.36,1.57,2.68,3.18,4,4.79a6.85,6.85,0,0,0,4,2.73c.75.15,3.85,0,4,.9.25,1.47-1.92,1.74-2.83,1.93l1.13,1.35c.22.28.94,1.49,1.28,1.55s1.78-1.19,2.08-1.42c1.5-1.13,2.94-2.49,4.54-3.48,1.44-.89,2.13,0,3,1.15,1.09,1.45,2.19,2.9,3.32,4.32.65.82,2.62,2.36,1.72,3.43-1.1,1.29-2.37-1-3-1.72a48.52,48.52,0,0,0-3.2-3.93c-1-1-1.68-.26-2.68.39A19.11,19.11,0,0,0,63.49,57c-.88.9-.63.78.2,1.65l2.13,2.26c.5.53,1,1.06,1.48,1.62S68.85,64,69,64.75a1,1,0,0,1-.9,1.15c-.61,0-1.14-.91-1.48-1.29L63.1,60.67c-.86-1-1.59-2.22-3-1.58a15.94,15.94,0,0,0-4,3c-1.41,1.38-.1,2.16,1.16,3.07s2.66,1.83,4,2.65l-1.09.93c-.69.59-.61.63-1.44.08a20.3,20.3,0,0,1-5-4.3c-1.4-1.8-.1-3.24,1.35-4.46s2.92-2.28,4.42-3.36c-1.1-1.24-2.17-2.51-3.29-3.72a4.34,4.34,0,0,0-1.89-1.49c-.93-.29-1.9-.51-2.84-.76-.77-.22-2.27-.48-1.94-1.63.24-.83,1.75-.75,2.5-.88L45.74,40.8c-.42-.48-1.53-2.27-2.14-2.26-.33,0-.92.61-1.16.79-.69.52-1.35,1.07-2,1.62C36.91,43.9,33.49,47,30.21,50.24c-.59.58-1.18,1.17-1.75,1.78-.3.31-1.09.93-1.18,1.37-.15.73,1,1.3,1.12,2.07.09.41.12.44-.17.75-.94,1-1.5,0-2.32-.51-1.27-.78-1.95.13-2.69,1.14-.57.79-.75.71-.22,1.45s1.21,1.43,1.71,2.22a7.07,7.07,0,0,1,.93,5.14C25.4,67,24.74,69.9,23,69.9Z"/><path class="cls-1" d="M26.43,43.16a5.9,5.9,0,0,1-5.32-3.56c-.29-.69-.36-1.89-.94-2.4a2.81,2.81,0,0,0-1.74-.36,128.26,128.26,0,0,0-13.86-.23,7.5,7.5,0,0,0,4,4.11c-.93,1.29-1.41,1.81-2.74.78s-2.1-2.18-3.23-3.24C1.79,37.49-.11,36.51,0,35.2S2.39,32.69,3.4,32s5.75-4.1,5.75-1.83c0,1.82-3.71,3-5.08,3.77a13.75,13.75,0,0,0,5,.59l7.57.13c1.86,0,3.78.5,5-1.13a8.69,8.69,0,0,1,3.88-3.35c3.81-1.31,7.94,1,7.58,5.25C32.86,38.76,30.17,43.16,26.43,43.16Zm2.2-11.28a6.19,6.19,0,0,0-5.17,3.59c-1,2.2-.38,5.27,2.46,5.49,2.18.17,4.3-1.67,5.08-3.6C31.68,35.69,31,31.88,28.63,31.88Z"/><path class="cls-1" d="M58.61,43.91c-2.78,0-5.43-1.26-6.06-4.16-.58-2.64.79-6,2.66-7.83A6.48,6.48,0,0,1,62,30.7c2.21,1,2.52,3.49,4.41,4.73,1.32.85,3,.47,4.52.37a57,57,0,0,0,7.28-.57c2.77-.55-.59-1.89-1.18-3s.56-1.33,1.37-1c1.22.51,2.45,1.88,3.47,2.71s2.67,1.6,2.46,3.14-1.67,2.27-2.73,3.1c-.71.56-3.31,2.87-3.62.55-.17-1.2,1.76-2.37,2.52-3.09-3.9,0-7.78.16-11.69.3-.94,0-2.11-.14-2.85.57s-1.1,2-1.82,2.83A7.25,7.25,0,0,1,58.61,43.91Zm1.88-11.46c-3.11,0-4.87,2.6-5.48,5.34s1.16,4,3.81,4A5.11,5.11,0,0,0,64,38.17C64.74,35.71,63.45,32.45,60.49,32.45Z"/><path class="cls-1" d="M43.9,77.62c-.61,0-1.14-.84-1.48-1.23-.7-.8-1.38-1.63-2-2.45s-1.32-1.65-2-2.48c-.28-.37-1-1.09-1.13-1.59-.15-.75.48-1.1,1.16-.91s1.56,1.35,2.11,2l1.68,1.84c0-2-.13-4.06-.29-6.1-.14-1.8.39-5-1.4-6.06s-3.47-1.91-4.36-4.07a5.67,5.67,0,0,1,.92-5.67c2.17-3.15,7.11-5,9.89-1.46.6.78.59,1.74,1.08,2.51.29.45.77.6.92,1.16a3.09,3.09,0,0,1-.24,1.61,9.94,9.94,0,0,1-3.09,5.19c-.87.66-2,.86-2.25,2.09a16.75,16.75,0,0,0,.34,4.22c.22,2.09.5,4.17.8,6.26.78-.72,4.2-4.41,4.2-1.59,0,1.26-1.05,2.3-1.74,3.26C46.43,74.88,45,77.62,43.9,77.62Zm-.48-28a6.31,6.31,0,0,0-5.28,4.34c-.53,2.62,1.89,4.58,4.25,4.79C47.63,59.17,48.7,49.59,43.42,49.58Z"/><path class="cls-1" d="M43.21,25c-1.72,0-3.59-.36-4.63-1.86a6.07,6.07,0,0,1-.38-5,6.79,6.79,0,0,1,2.72-3.72c1.12-.77,2.82-.89,2.95-2.46.08-1,0-2,0-3,0-.59.34-2.52,0-3-.47-.68-3.16.71-3-1a6.12,6.12,0,0,1,.72-1.53A10.17,10.17,0,0,1,43.29.63c2-1.87,4.13.86,5.09,2.5.42.72.69,2.26-.58,2.2-.58,0-1.22-.66-1.68-1V9.06c0,1.32-.39,3.15.56,4.19S48.87,15,49.82,16c1.42,1.52.75,3.89-.18,5.53A6.92,6.92,0,0,1,43.21,25Zm0-1.93c2-.66,4.5-.95,5.39-3.12a3.47,3.47,0,0,0-3.13-4.66A4.93,4.93,0,0,0,40.55,19a4,4,0,0,0,0,2.91C41.16,22.86,42.91,22.3,43.18,23.05Z"/><path class="cls-1" d="M27.62,37.53c-1-.05-2.46-1.28-1.06-2a1,1,0,0,1,1.17.14C28.4,36.32,28,36.93,27.62,37.53Z"/><path class="cls-1" d="M59.59,38.13c-1.77,0-2.33-3.05-.39-3.07C60.68,35.05,61.16,38.15,59.59,38.13Z"/></g></g></svg>