<svg xmlns="http://www.w3.org/2000/svg" viewBox="0 0 66.92 61.65"><defs><style>.cls-1{fill:#ffe82c;}</style></defs><g id="Lager_2" data-name="Lager 2"><g id="_ÎÓÈ_1" data-name="—ÎÓÈ_1"><path class="cls-1" d="M33.49,61.65c-2.17,0-.85-3.27-2.43-4a8.57,8.57,0,0,0-3.35-.08c-.77,0-1.9-.06-2.15.85s.71,1.7-.13,2.69c-.6.72-1.37.34-1.74-.42A7.84,7.84,0,0,1,23.27,57c-.2-.46-.06-.69.43-.68l1-.33a14.82,14.82,0,0,1,1.73-.49c1.12-.23,4.22.37,4.84-.82.5-.95,0-2.93-.06-4q-.12-2-.21-4c-.23-4.82-.24-9.63-.6-14.44-3.15,2.19-5.13,5.69-8.5,7.6A6,6,0,0,0,25.39,41c.54.05,1.17,0,1.4.55a1.4,1.4,0,0,1-.71,1.5c-1.23.73-3.62-.1-4.94-.29-1.6-.22-2.61-.38-3.35,1.27a29.54,29.54,0,0,0,3,.37c.74,0,2.89-.22,3.49.34.81.76-.19,1.86-1,2a20.14,20.14,0,0,1-4.37-.27c-1.45-.1-3.55-.71-4.72.42a3.88,3.88,0,0,0-1,2c0,.16.51.52.62.63a2,2,0,0,1,.7,1.48,5.37,5.37,0,0,1-4.4,4.68A4.55,4.55,0,0,1,4.87,52.1c-.41-2.19.2-4.5,2.66-5,1.22-.24,2.26.24,3.48-.31a11.17,11.17,0,0,0,2.76-2.09c2.62-2.35,5.32-4.63,8-7,2.22-2,5-4.1,6.39-6.72a47.8,47.8,0,0,0-5.74,0c-1,.05-2.27-.12-3.17.47S18,33.34,17.4,34.2s-.86,1.47-1.8.92a13.26,13.26,0,0,1-2.66-2.31c-1.29-1.34-2.84-2.48-4.87-1.93s.51,4.3-.74,5.62c-.49.53-1.57.34-2.21.4a18.33,18.33,0,0,1-3,.2c-.76,0-1.79-.45-1.25-1.35s1.75-.86,2.57-1.06c1.8-.42,1.67-1.36,1.33-3C4.6,30.64,4.1,31,3,31c-.9-.05-2.72-.15-3-1.26-.39-1.57,3.41-1.06,4.4-1.05V27.07c0-.91.36-2.8-.07-3.61S-.32,22.25,1.2,20.81c.6-.59,2.51-.29,3.29-.34s1.77-.26,2.2.58a4.45,4.45,0,0,1,0,2.48A8.91,8.91,0,0,0,6.55,26c.07,1.14.24,2.23,1.42,2.68,1.76.68,4.11.38,6,.43a101.57,101.57,0,0,0,14.39-.28L25.37,26l-2.16-2.06c-.43-.41-1.05-1.29-1.6-1.53s-.9.57-1.65.5c-2-.19.17-2.1-.06-2.83a6.16,6.16,0,0,0-1.72-1.37c-.29,0-.95.75-1.27.93a9,9,0,0,1-2.48.93c-.86.2-2.67.79-3.5.14-1.8-1.44,1.91-1.93,2.65-2.1,1.11-.26,3.16-1,2.12-2.5s-2.66-.42-4,.09c-1,.38-3.79.1-2.34-1.33.52-.52,1.78-.59,2.12-1.27.21-.42,0-.56-.3-1-.82-1.19-1.55-.68-2.8-.57a3.44,3.44,0,0,1-3.53-2A3.93,3.93,0,0,1,5.8,5.32C6.69,4.56,9,3.86,10,4.8a14.49,14.49,0,0,1,1.08,2,4.15,4.15,0,0,1,.84,2.46c0,1.3.39,2.12,1.82,2.43.15-.65.35-1.29.5-1.94s.07-1.41.49-1.81c1-1,2,.35,2,1.35-.06,1.29-1,2.56-.91,3.85.08,1,1.11,1.49,1.86,2a8.85,8.85,0,0,0,1.37-4c.11-.85.56-2.28,1.79-1.45.89.61.46,2.94.29,3.84a6.76,6.76,0,0,1-.63,1.92c-.15.3-1.07,1.26-1,1.51,0,.4,1.06,1.19,1.37,1.51.61.65.59.44,1.28-.09s2.93-2.1,2.74-.1c-.1,1-1.31,1.73-2,2.34l6.93,7V6.66l-1.93.09c-1.34.06-3.11.48-4.28-.35S22.24,4,22.14,2.67c-.07-1.09.73-1.68,1.7-.82.66.59.5,2.23,1.2,2.57a9.05,9.05,0,0,0,2.6,0c1.41,0,1.84-.59,1.69-2-.08-.68-.42-3.29,1.18-2.16.84.59.59,2.38,1,3.3.2.49,0,.3.32.47a4.38,4.38,0,0,0,1.4,0,1.77,1.77,0,0,0,1.87-1.74c.08-.77,0-2.35,1.15-2.06s1.06,2.09,1.19,2.93c.21,1.44.51,2.59-1.17,2.89-1.08.19-3-.19-3.9.52-.65.53-.46,1.69-.47,2.44-.09,5.92.2,11.83.45,17.74,3.57-2.28,5.61-6,8.36-9-.89-.21-1.81-.38-2.69-.64s-2.31-1.6-.62-2c2.36-.52,5.68,1.47,7-1.36A28,28,0,0,1,39,12.17c-.72-.35-1.85-1.39-.53-1.85.92-.32,2.27.22,3.22.41s1.93.39,2.9.55c1.56.26,1.92-.11,2.89-1.21C48.21,9.25,49,8.76,49,7.55s-.65-2.18.49-3.29c1.64-1.6,5.32-1.9,6.59.35,1,1.84-.66,4.41-2.29,5.37-1.17.69-2.15-.38-3.32,0-.78.26-1.23,1-1.7,1.66-1.4,1.89-2.73,3.9-4.31,5.65-1,1.14-2.37,1.94-3.43,3.07a40.67,40.67,0,0,0-3,3.72C37,25.52,36,27,34.9,28.4a27.22,27.22,0,0,0,6-.2,6.45,6.45,0,0,0,3.3-.83,30.51,30.51,0,0,0,3-2.79c.63-.59,1.41-1.67,2.31-1.83s1.64.69,2.24,1.23a15.93,15.93,0,0,0,2.73,2.41c1,.52,2.1.16,3.12,0S59,26,59,25s-.25-2.26-.35-3.35c-.07-.72-.41-1.62.28-2.12s1.82-.32,2.57-.37c1-.06,4.91-.81,3.8,1.6-.7,1.5-3.41-.06-4.09,1.57-.36.87,0,3.32.79,4a2.86,2.86,0,0,0,1.62.43,24.39,24.39,0,0,1,3.3.41c-.17.45-.36,1.63-.71,1.91s-.63.15-1.06.15H61.1c.16.8.31,1.6.47,2.39s.15,2.51.61,3.06,2.71-.13,3.33-.18,1.41,0,1.39.93c0,1.24-1.34,1.46-2.3,1.58-1.54.21-4.08,1-4.89-.84s-.44-4.27-.58-6C59,28,57.24,28.22,55.56,28.59c-2.26.51-4.59.32-6.87.52-5,.44-10,1.06-15,1.41l8.92,7.84c.17.15.82.93,1,.93s1-.94,1.18-1a2.37,2.37,0,0,1,1.75-.8c2.45.23-.7,2.65-.71,3.31,0,.44,1,1.39,1.43,1.5.72.19,1.59-.37,2.22-.64,1.17-.48,5.85-2.07,5.3.71-.22,1.14-1.18.7-2.08.85a9,9,0,0,0-2.6,1.08c.6,1.16,1.36,2.25,2.78,2.2,1.26-.05,3.23-1.35,4.46-.54A1.86,1.86,0,0,1,58,47.37c0,.71.06.34-.55.58a18.5,18.5,0,0,1-2.58.56c1.54,2.22,4.34.81,6.1,2.62.93,1,2,1.87,1.52,3.27a6.25,6.25,0,0,1-2.42,3.18,4.66,4.66,0,0,1-3.84-.44,3.26,3.26,0,0,1-1.58-2.81c0-.84.53-2.07.08-2.86s-1.35-.78-2-.92a14.14,14.14,0,0,1-.1,2c-.3,1.5-1.41.91-2-.11-.88-1.63.77-3.82-.62-5.15-2.27-2.18-2.34,1.75-2.65,3s-1.16,1.61-1.81.31a6.93,6.93,0,0,1,0-4c.31-1.29.82-2,0-3.21-.62-.94-1.43-1.54-2.47-.93-.66.38-1.26,1.09-2.09.41s0-1.42.4-2c.66-.82.42-.7-.34-1.38L38.16,37l-5.38-4.75c0,3-.1,6,.06,9,.09,1.78.27,3.56.36,5.34.11,2.23-.21,4.76.26,6.95.57,2.62,5.07,1.45,7,1.65s1.6,2.3,1.36,3.92c-.1.65-.15,1.81-1.06,1.47s-1-1.38-1-2.11-.07-.72-1.06-.8a14.88,14.88,0,0,0-3.2,0,1.27,1.27,0,0,0-1.28,1.13C34.12,59.42,34.58,61.65,33.49,61.65ZM58.93,52c-1.61,0-2.54,2.94-.91,3.63C60.22,56.55,61.82,52,58.93,52ZM9.16,49.11c-2.77,0-2.28,5,.65,4.38,1.06-.22,2.71-1.17,2.32-2.47A3.44,3.44,0,0,0,9.16,49.11ZM8.48,6.48c-2,0-2.21,4.23.16,3.44C9.91,9.5,10.15,6.48,8.48,6.48ZM53.13,5c-1.76,0-2.55,3.17-.61,3.2C54.16,8.22,55.17,5,53.13,5Z"/></g></g></svg>