<svg xmlns="http://www.w3.org/2000/svg" viewBox="0 0 53.76 74.21"><defs><style>.cls-1{fill:#ffe82c;}</style></defs><g id="Lager_2" data-name="Lager 2"><g id="_ÎÓÈ_1" data-name="—ÎÓÈ_1"><path class="cls-1" d="M53.76,36.86c0,.93-1.72,2.29-2.29,3-.89,1.07-1.75,2.18-2.67,3.23s-1.53,1.73-2.7.79-2.23-2-3.37-2.93S41,40,40,41c-1.2,1.27-2.36,2.59-3.54,3.88l-3.12,3.41c-.88,1-2.71,2.34-3,3.66-.26,1.07.82,1.83,1.48,2.51,1.12,1.16,2.16,2.39,3.21,3.6s1.17,1.87,0,3.18-2.32,2.47-3.49,3.68c-.57.59-1.66,1.42-1.69,2.33s1.18,1.86,1.8,2.45,2.59,1.91,2.44,3c-.21,1.69-1.94.26-2.44-.26-.86-.9-1.77-2.33-2.86-3s-1.65.41-2.25,1.16a14.62,14.62,0,0,1-3,3.21c-.88.59-1.79.37-1.24-.8a18.88,18.88,0,0,1,2.43-3c.36-.44.77-.88,1.09-1.35.81-1.2.13-1.84-.78-2.72A37.33,37.33,0,0,1,22,62.79c-.67-.82-1-1.41-.49-2.39a34.61,34.61,0,0,1,2.69-3.59c.71-.94,2.13-2.23,2.43-3.39.37-1.37-1.44-2.58-2.27-3.44-2.21-2.29-4.4-4.61-6.61-6.9a10.17,10.17,0,0,0-2.94-2.41c-1-.44-1.57.38-2.17,1.16-1.07,1.41-3.29,5.79-5.58,5.27-1.07-.24-2.13-2-2.8-2.79l-2-2.42c-.58-.7-1.15-1.41-1.69-2.14-.81-1.09-.68-1.48.19-2.52S2.6,35.07,3.53,34c.78-.9,1.88-2.94,3-3.32s1.9.71,2.7,1.53l3,3a7.92,7.92,0,0,0,1.35,1.24c1.3.78,2.06-.24,2.85-1.21,2-2.39,4-4.75,5.92-7.16.9-1.11,1.81-2.22,2.7-3.35.57-.74.89-1.24.46-2.12-1.05-2.15-3.29-3.79-4.67-5.7-1.23-1.7,1-3.81,2-5.19a36.59,36.59,0,0,1,2.56-3.28c1.05-1.19,1-1.64-.08-2.82S21,2.18,22.76.53c.86-.81,1.6.67,2.1,1.31a13.67,13.67,0,0,0,2.6,2.92c.8.55,1.25.1,1.89-.47,1-.89,1.91-1.87,2.91-2.76C32.82,1,34.35-.7,35.15.32S34,2.47,33.47,3c-1.33,1.25-4.59,3.15-3.31,5.23a22.14,22.14,0,0,0,2.91,3.36c.78.82,2.39,1.9,2.34,3.16S33.7,17.3,33,18.18L31.31,20c-.89,1-2.69,2.43-2.07,3.91.51,1.23,2.13,2.45,3.05,3.4,1.8,1.87,3.6,3.74,5.41,5.59.68.7,1.81,2.36,2.81,2.65s1.91-1.55,2.41-2.31a15.61,15.61,0,0,1,2.46-3.53c1-.84,1.8,0,2.58.75q1.7,1.68,3.34,3.41C51.84,34.47,53.8,36,53.76,36.86Zm-11,.62c0,1.11,1.33,1.92,2.07,2.56s1.78,2,2.89,1.25a17.06,17.06,0,0,0,2.43-2.66c.77-.87,1.21-1.55.42-2.56A21,21,0,0,0,49,34.48c-.5-.52-1.63-2.15-2.45-2.18s-1.56,1.45-1.94,2C44,35.13,42.78,36.45,42.72,37.48Zm-26.46.94c-.06,1.12,1.83,2.41,2.53,3.14,1.13,1.17,2.28,2.32,3.43,3.46,1,1,2,2,3,3,.78.76,1.92,2.33,3.06,2.5s1.83-1,2.41-1.73c1.06-1.3,2.09-2.63,3.21-3.89s2.1-2.32,3.15-3.48c.72-.81,2.44-2.1,2.48-3.27S38,35.86,37.14,35L34,31.9c-1.82-1.86-3.62-3.74-5.48-5.56a4.27,4.27,0,0,0-.93-.87c-.5-.21-.1-.2-.61,0-1.4.67-2.5,2.65-3.46,3.79l-3.81,4.58L18,36C17.5,36.56,16.3,37.58,16.26,38.42Zm7.09,22.64c0,.82.95,1.5,1.48,2s1.3,1.31,2,1.89c1.25,1,1.92.27,2.88-.8l2.1-2.29c.48-.53,1.41-1.19,1.45-2,.06-1.15-1.92-2.74-2.62-3.55s-1.51-2.07-2.52-1.28a24.8,24.8,0,0,0-3.32,3.82C24.33,59.47,23.39,60.28,23.35,61.06Zm-.48-45.57c-.06,1.19,1.63,2.79,2.32,3.7s1.62,2.73,2.93,1.8,2.3-2.59,3.29-3.76c.38-.45,1.64-1.55,1.64-2.28s-1.22-1.81-1.72-2.36-1-1.16-1.58-1.73S28.7,9.4,28,9.22c-1.26-.34-2.28,1.84-2.89,2.67S22.93,14.3,22.87,15.49ZM2.59,38.39c-.06,1.26,1.94,2.94,2.68,3.86.62.76,1.79,3,3,2.37.53-.28.92-1.09,1.27-1.56.52-.71,1-1.43,1.57-2.14s1.25-1.29,1.28-2-.8-1.34-1.22-1.8L9.22,34.93c-.69-.76-1.44-2-2.47-1.5s-1.85,2-2.58,2.76C3.68,36.75,2.64,37.59,2.59,38.39Z"/><path class="cls-1" d="M32.93,38.39a5.56,5.56,0,0,1-5.23,5.34c-3,.11-5.12-2.72-4.95-5.54a7.58,7.58,0,0,1,1.56-4.14A3.76,3.76,0,0,1,28,33.12C30.79,33.61,32.9,35.53,32.93,38.39Zm-8.53-.65c0,4.58,7.34,4.94,6.8.31C30.78,34.42,24.37,33.33,24.4,37.74Z"/><path class="cls-1" d="M28.75,38.2c0,1.28-2,1.73-2,.24C26.79,37.33,28.59,36.57,28.75,38.2Z"/></g></g></svg>