<svg xmlns="http://www.w3.org/2000/svg" viewBox="0 0 65.04 67.58"><defs><style>.cls-1{fill:#ffe82c;}</style></defs><g id="Lager_2" data-name="Lager 2"><g id="_ÎÓÈ_1" data-name="—ÎÓÈ_1"><path class="cls-1" d="M32.41,67.57c-1.62-.11-1.11-2.8-1.12-3.83a42.28,42.28,0,0,0-.28-5.4c-1.65.54-2.69,1.72-4,2.83-.63.55-1.46,1.21-2.15.25-.55-.78.26-1.39.81-1.9,1.5-1.42,3.06-2.76,4.54-4.21s1-3-1-3c-.59,0-1.16.24-1.75,0s-1.12-.91-.7-1.48c.6-.82,2.53-.27,3.4-.62s.8-1.17.81-2a24,24,0,0,0,0-3.5c-.22-1.43-2.84-1.81-4-2.49a11.4,11.4,0,0,1-4.15-4A6.91,6.91,0,0,1,22.37,37a7.14,7.14,0,0,0-.27-1.27c-.25-.33-1.19-.25-1.65-.28a22.29,22.29,0,0,0-6.26.3c-1.59.39-2.81,2.28-3.85,3.44-.51.57-1.29,1.93-2.09,2.06a1,1,0,0,1-1.1-1.42A14.27,14.27,0,0,1,9,37.42c.21-.28.69-.72.77-1.05.26-1.06-1.33-.72-2-.71a52.27,52.27,0,0,1-6.5.12c-.67-.09-1.82-.86-1-1.51.68-.53,2.76-.29,3.58-.34l3.63-.2c1-.07,2.6.14,1.84-1.1C8.25,30.86,5.81,30.16,5.4,28a2.5,2.5,0,0,1,2.42.8c1,.8,2,1.56,2.93,2.34,1.75,1.42,3.05,3,5.46,2.17a12.09,12.09,0,0,0-2.61-3.51c-.94-1-2-1.82-2.23-3.24,1.2.06,1.76.74,2.65,1.52s1.9,1.7,2.83,2.56c1.13,1.05,2.62,3.73,4.48,2.66,1.3-.75,1.44-3.31,1.91-4.55a7.67,7.67,0,0,1,3.56-4.25,17.15,17.15,0,0,0,2.41-1c.78-.59.64-1.53.65-2.42s0-1.5,0-2.26.1-.58-.58-.75-4.46.2-3.75-1.34c.55-1.19,3.36-.19,4-1,.54-.62.19-2.63-.08-3.3a8.39,8.39,0,0,0-2.31-2.66C25.82,8.45,23.73,6.94,23,5.1c1.53-.38,2.51.84,3.64,1.76.91.74,1.81,1.49,2.7,2.23A19.91,19.91,0,0,0,30,3c0-1.59-.39-2.5,1.35-3,.6,2.93.42,6,.56,8.94a27.62,27.62,0,0,0,2.64-2.19c1-.94,2.38-2.93,3.86-2.94,2,0,.43,1.89-.17,2.44q-2,1.83-4,3.62c-1.06.93-2.28,1.73-2.47,3.24-.17,1.27.09,2.49,1.52,2.54.72,0,3.3-.84,3.51.45s-2.29,1.54-3.06,1.61c-2.41.23-1.75,2.73-1.79,4.58,0,.91-.24,1.07.6,1.31,1.09.31,2.21.5,3.31.76A8.23,8.23,0,0,1,41.71,29a10.59,10.59,0,0,1,.72,3.6c0,.17,0,.82.09.91a6,6,0,0,0,1.32,0c2-.08,4-.21,6-.31s2.93-.37,4.17-1.88c1-1.23,2.22-3.16,3.66-3.92.52-.28,1.14-.47,1.25.31.08.62-.77,1.59-1.09,2.12-.54.9-1.09,1.79-1.63,2.68,2.91.39,6-.5,8.82.4-.61,1.43-1.06,1.79-2.6,1.72-1.1,0-4.09-.68-4.81.47-.91,1.42,2.18,3.17,2.73,4.14.36.64.3.15.1.7a5.55,5.55,0,0,1-.8,1.09c-2.69-2.23-5.26-8.4-9.73-5.64l3.69,4.4c.39.46,1.65,1.51,1.78,2.12s-.72,1-1.18,1.39c-1.34-1.57-2.53-3.33-3.93-4.82-.68-.73-1.44-1.37-2.18-2S46.86,35.07,45.76,35a5.51,5.51,0,0,0-4.16,1.6c-.9,1.17-1.17,2.73-2.17,3.91a9.87,9.87,0,0,1-3.69,2.67c-.78.34-2.5.47-2.8,1.27a9.75,9.75,0,0,0,.13,2.84c0,.81.07,1.63.11,2.45,1-.06,2.08-.15,3.13-.16s2.77.28,1.36,1.61-5.18-.29-4.37,2.85c.38,1.44,2.41,2,3.6,2.66l1.77,1c.35.19,2.59,1,2.75,1.45.1.3-.72,1.49-.87,1.81l-7-4a31.65,31.65,0,0,0-.07,5.76C33.49,63.66,34.25,67.78,32.41,67.57Zm-.89-42.36a6.46,6.46,0,0,0-5.39,2.84,13.47,13.47,0,0,0-1.34,3.55A12.88,12.88,0,0,0,24,34.73c-.07,4.44,5.29,7.91,9.36,7.2,4.32-.74,7.43-5.29,7.28-9.53a7.25,7.25,0,0,0-2.81-5.59,6.24,6.24,0,0,0-3-1A31.62,31.62,0,0,0,31.52,25.21Z"/><path class="cls-1" d="M32.3,37.34c-2.07,0-4.43-1.92-4.46-4.07a4.33,4.33,0,0,1,4-4.24c2.1-.15,4.42,1.12,4.42,3.42C36.28,34.54,34.59,37.34,32.3,37.34Zm.17-6.71c-2.94,0-3.48,5-.25,4.86C34.72,35.41,35.21,30.72,32.47,30.63Z"/></g></g></svg>