<svg xmlns="http://www.w3.org/2000/svg" viewBox="0 0 53.88 57.41"><defs><style>.cls-1{fill:#ffe82c;}</style></defs><g id="Lager_2" data-name="Lager 2"><g id="_ÎÓÈ_1" data-name="—ÎÓÈ_1"><path class="cls-1" d="M28.32,57.41c-1.24,0-2.48-1.63-3.17-2.44a18.9,18.9,0,0,1-3.36-4.48,1.87,1.87,0,0,1,2.28.57c.3.3,1.05,1.49,1.58,1.42.86-.12.65-2.54.34-3.17-1.28-2.64-4.86-3.88-5.11-7.05a20.78,20.78,0,0,1,.06-4.39c.07-.53.26-1.31,1-1.22s.88,1.27,1,1.89c.2,1.55-.11,3.71.57,5.13a6.34,6.34,0,0,0,2.69,2.27c.34-3.27.24-6.56.29-9.84,0-1.64,0-2.61-1.57-3.33a8.21,8.21,0,0,1-3.34-2.31c-.77-1-.81-2.12-2.19-2.39a29.81,29.81,0,0,0-5.43-.21c-2,0-3.92,0-5.89-.06a10.67,10.67,0,0,0-3.62.32c.81.78,5,4,2.35,4.54-1.17.24-3.16-2.41-3.94-3.16-.94-.89-3.46-2.47-2.65-4,.35-.64,1.33-1.09,1.92-1.5s1.47-1,2.22-1.52S7,20.17,8.09,20.79c1.74,1-2.76,3.62-3.6,4.22,1.32.73,2.28,1.12,3.56.09,1.45-1.17,2.62-2.71,4.09-3.85,1.28-1,3.29-.56,4.82-.59.85,0,1.7,0,2.55,0a5.75,5.75,0,0,1-.46,1.56c-.4.57-2.25.49-3,.5a5.08,5.08,0,0,0-3.07.53,16.28,16.28,0,0,0-2.24,2.23,24.68,24.68,0,0,0,4.85.46l3,.1a2.67,2.67,0,0,0,1.72-.23c.58-.41.63-1.3.91-1.91a6.3,6.3,0,0,1,1.23-1.72,15.53,15.53,0,0,0,1.78-1.65,3.69,3.69,0,0,0,.44-2.22c0-4.54.55-9.42-.11-13.94-.71.94-1.38,1.91-2.07,2.86-.44.6-1,1.19-1.75.77s-.59-1.18-.18-1.83c.83-1.31,1.87-2.54,2.81-3.78C23.94,1.7,24.5.57,25.29.16c1-.5,1.71.3,2.49.82,1.45,1,3.74,2,4.64,3.6.36.62.15.55-.38,1.14-.17.19-.37.53-.56.53-.49,0-1.76-1.46-2.14-1.77L27.57,3c-1.27,2.45-1,4.25,1.2,6,.92.7,2,1.2,2.91,1.94s.56,2.17.68,3.26a8.79,8.79,0,0,1,0,2,4.43,4.43,0,0,1-.17,1.1c-.2.46.16.43-.44.48-1.3.1-1.2-1.89-1.21-2.64,0-1.38.11-2.55-1.07-3.51A25.84,25.84,0,0,0,27,10.11a23.22,23.22,0,0,0-.33,4.57,22.08,22.08,0,0,0,0,4.67c.22,1,1,1.16,2,1.42A15.61,15.61,0,0,1,33,22.49a3.27,3.27,0,0,1,1.16,1.23c.29.53.25,1.36.75,1.76s1.3.26,1.89.26h2.82c3.38,0,6.84.23,10.16-.4-.65-.83-1.32-1.65-2-2.49-.33-.43-2.4-3-.49-2.64.79.15,1.66,1.3,2.19,1.84.73.74,1.46,1.48,2.18,2.23s2.6,2.05,2.08,3.16c-.66,1.41-2.94,2.13-4.14,3.08-.88.69-2.76,3.11-4,2.59-2.31-.93,2.41-4.22,3.34-5-2.39-1.33-3.47-.18-4.76,1.89-1.12,1.81-1.65,3.75-4.06,3.8a16.43,16.43,0,0,1-3.26.21,1.31,1.31,0,0,1-.9-.6c-.43-.56-.47-.71.33-1.08,1.84-.84,3.83.57,5.2-1.52.41-.62,1.74-2.57,1.11-3.16-.3-.28-.86-.16-1.25-.16-1.6,0-3.21,0-4.82,0-1.12,0-2,0-2.65,1s-1,1.86-1.72,2.7a7.67,7.67,0,0,1-2.58,2c-1.36.7-1.18,1.87-1.19,3.28,0,5.76-.63,11.77.33,17.47.77-.63,4.76-5.2,5.15-2.71.2,1.22-1.33,2.28-2.08,3-.57.58-1.15,1.16-1.7,1.77S29.1,57.41,28.32,57.41Zm-.61-35.48a5.07,5.07,0,0,0-5.11,5.29,4.73,4.73,0,0,0,4.87,4.7c3.23-.09,4.26-2.52,5-5.28S30.31,21.93,27.71,21.93Z"/><path class="cls-1" d="M27.48,28.12c-1.05,0-1.92-1.83-.33-1.89C28.43,26.18,29.1,28.12,27.48,28.12Z"/></g></g></svg>