<svg xmlns="http://www.w3.org/2000/svg" viewBox="0 0 99.8 96.26"><defs><style>.cls-1{fill:#ffe82c;}</style></defs><g id="Lager_2" data-name="Lager 2"><g id="_ÎÓÈ_1" data-name="—ÎÓÈ_1"><path class="cls-1" d="M51.21,96.26c-.69,0-1.53-.91-2-1.3-.82-.63-1.63-1.29-2.42-2s-3.4-2.22-3.27-3.47c.18-1.74,2.53.38,3.1.83l2.18,1.72a19.38,19.38,0,0,0-.1-6.75c-.42-1.8-2.36-2.78-3.79-3.72-.73-.48-2.21-1.07-2.22-2.08,0-.5.51-1,.78-1.39L45,75.82a6.6,6.6,0,0,0,1.13-1.66c.15-.67-1.27-1.4-1.82-1.91-.83-.77-1.65-1.36-1.1-2.5a27.09,27.09,0,0,1,1.89-3c.77-1.15,2-2.27,2.47-3.58a6.07,6.07,0,0,0-.34-4.2c-.63-1.07-2.38-1.3-3.47-1.65-.63-.2-.91-.44-1.39-.14a8.16,8.16,0,0,0-1.3,1.55l-2.93,3.45a6.1,6.1,0,0,0-1.44,1.95c-.21.75.19,1.27.46,1.92a6.82,6.82,0,0,1,.14,4.48c-.56,1.55-2,.56-2.14-.67s.06-2.45-.74-3.7a42.4,42.4,0,0,0-4,4c-1.61,1.74-3,3.8-4.64,5.47-.74.73-1.67,1.26-2.38,2s-1.29,1.77-2,2.6-2.56,3.82-3.67,2.82c-1.43-1.3,2.46-3.79,2.67-5s-1-.53-1.59-.39a19,19,0,0,1-3.49.83c-.62,0-1.84-.48-1.21-1.25.23-.28,1-.43,1.32-.55,1.85-.66,3.7-1.34,5.56-2a3.51,3.51,0,0,1,1.79-.33c.29,0,.64.24.94.15.66-.2.72-1.1.86-1.69-3.5,0-7.08,1-10.54,1.5-.67.11-4.48.77-4-.81.2-.63,1.55-.67,2.05-.78,1-.21,2-.4,3-.6C17.06,71.81,19,71.4,20.9,71s3.79-1,5.67-1.27c.79-.11,1.42.09,2.17-.41A6.54,6.54,0,0,0,30.1,68c.84-1,1.57-2.07,2.34-3.12-1.29-.82-2.72-.4-4.12-.77-.94-.25-1.64-1.26-.42-1.7a9.66,9.66,0,0,1,3.9-.15,5.6,5.6,0,0,0,2.93,0,6.25,6.25,0,0,0,2.53-2.31c.79-1,1.61-2,2.43-3C40,56.54,41,55.71,41,55.23c0-.7-1.18-2.27-1.5-2.88s-.8-2.05-1.24-2.18a3.15,3.15,0,0,0-.69.24,7.93,7.93,0,0,0-1.35.29,5.89,5.89,0,0,0-2.16,1.87c-.7.88-1.38,1.78-2,2.68-.19.25-.74,1.29-1.05,1.43s-1.23-.67-1.65-1.07c-.81-.75-1.54-1.58-2.36-2.33-.52-.47-1.24-1.37-1.8-1s-1.17,1.5-1.59,2-1.18,2.05-1.89,2.2-1.42-.63-1.84-.94c-1.13-.81-2.21-1.69-3.31-2.55a23.18,23.18,0,0,0-2.37-1.81c-1.11-.64-2.62-.3-3.86-.23l-3.23.2c-.55,0-1.19-.15-1.22.54,0,.87,2.76,1.85,3.5,2.17s1.93.64,1.52,1.57-1.74.84-2.52.45a58.32,58.32,0,0,1-6.08-3.62C1.41,51.68-.21,51,0,49.7s2-2.11,2.82-2.76C4.42,45.71,6,44.41,7.61,43.27c.76-.54,2.09-.65,2.08.59S8.52,45.69,7.63,46.3s-1.87,1.37-2.8,2.06a20.33,20.33,0,0,0,6.28.08,4.22,4.22,0,0,0,3-1.32c1-1,2-1.94,3-2.91.75-.74,1.65-2,2.64-2.37s1.64.36,2.31.9c1,.8,1.89,1.63,2.83,2.46.23.19,1.29,1.32,1.62,1.26s.81-.89,1-1.14c.78-.85,1.58-2.19,2.6-2.75.75-.4,1.2-.09,1.74.5.88,1,1.56,2.17,2.38,3.2.54.68,1,1.47,1.88,1.68a5.11,5.11,0,0,0,2.12.14c.44-.23.91-2.54,1.06-3.05.39-1.37-.17-2.09-1.1-3.07-2.08-2.18-4.19-4.32-6.25-6.52-.39-.43-1.5-1.84-2.06-1.8-.38,0-.83.7-1.21.85a3.37,3.37,0,0,1-1.93-.15,6.53,6.53,0,0,1,1-2c.37-.56.34-.21.14-.74-.55-1.48-1.93-1.13-3-.69-3.2,1.3-6.29,2.09-9.63.7-.86-.36-3.65-1.58-3.11-2.84.63-1.47,2.91.64,3.78,1,3,1.09,6.13.3,8.84-1.15a51.32,51.32,0,0,0-4.36-4.73c-.57-.55-2.13-1.61-2.21-2.47a1.06,1.06,0,0,1,1.48-1.1A10,10,0,0,1,22,22.44c1,1,1.95,2,3,2.9.34.29,1.53,1.67,2,1.65s1.37-1.19,1.63-1.48c3-3.33,1.85-9.37-.63-12.64-.43-.56-.67-1.14.21-1.47s1.38.6,1.81,1.23c1.21,1.73,1.59,4.19,2.18,6.19a8.31,8.31,0,0,1-.71,6.7,14.92,14.92,0,0,1-1.8,2.31c-.67.78-.42,1.24-.26,2.16.56-.66,1.1-1.33,1.64-2,.32-.39.88-1.29,1.49-1.3.38,0,1.11.76,1.18,1.15.1.58-.47,1.14-.85,1.71-.79,1.19-1.47,2.2-.42,3.46,1.89,2.26,4.32,4.24,6.42,6.32.46.47.91,1,1.41,1.41,1.07.9,1.83.21,2.91-.37.71-.38,1.7-.71,2.07-1.49a5.59,5.59,0,0,0,.15-2.48c-.17-2.69-2-3.79-4-5.26-.68-.5-2.25-1.45-2.25-2.42,0-1.12,1.7-2.62,2.35-3.45.2-.25.77-.74.81-1s0-.15-.28-.51c-.81-1-2.08-1.67-2.9-2.7s.31-2.13,1-3.13q1.55-2.3,3.16-4.56a5.73,5.73,0,0,0,1.31-3.84,9.22,9.22,0,0,0-.68-4.28c-.41.58-.89,1.11-1.26,1.71s-.57,1.2-1.33,1.46a2,2,0,0,1-1.4,0c-.6-.42-.13-1.13.14-1.64.76-1.4,1.74-2.72,2.63-4C43,2.18,43.81.47,44.4.13c1.11-.63,2.47,1.18,3.1,1.78a33.15,33.15,0,0,1,3.68,3.72c.47.62.8,1.16.44,1.93-.46,1-.93.59-1.56,0-1.1-1.1-1.7-2.42-3.14-3.16a33.27,33.27,0,0,0-.12,6c.07,2.46,1.68,3.21,3.53,4.51a20.18,20.18,0,0,1,2.46,1.94c.58.56.55.35.34.85a12.84,12.84,0,0,1-2.2,2.48c-.34.38-1.81,1.57-1.84,2.08-.07,1,2.64,2.38,3.4,2.82.58.32,2.33,1,2.59,1.69S54.3,28.47,53.85,29c-1.38,1.6-3.2,2.82-4.67,4.35a4.07,4.07,0,0,0-1.48,2.49c-.07,1-.12,2.4.73,2.89a15,15,0,0,0,2.74.94c.89.31,2.25,1.11,3.19,1a2.24,2.24,0,0,0,1.34-1c.81-1,1.59-2,2.39-3,1.1-1.36,3.57-3.26,3.18-5.2-.29-1.41-1.62-4,.24-4.95,2.22-1.14.75,2.9,2.13,3.23.51.13,2-1.95,2.34-2.36,1.56-1.75,3.17-3.45,4.74-5.19,2.29-2.54,4.56-5.1,6.86-7.63.5-.56,1.47-2.17,2.38-1.74s.25,1.78-.15,2.34a36.36,36.36,0,0,1-2.94,3.4c2.32.62,4.42-.17,6.72-.41.17,0,1.34-.2,1.47,0s-.06.86-.1,1a1.49,1.49,0,0,1-1,1.26,14.23,14.23,0,0,1-3.45.58c-1.25.17-2.5.32-3.76.44-1.7.17-4.42.34-4.29,2.71,4.78-.66,9.48-2.2,14.29-2.55-.06,1.72-.28,2.23-2,2.59-2.93.62-5.88,1.16-8.82,1.73l-4.08.79a8.11,8.11,0,0,0-3.19.87c-1.5,1.11-2.65,3.14-3.83,4.59a8.26,8.26,0,0,0,2.58.58c1,0,2.44-.31,2.07,1.28-.43,1.92-4.38.47-5.63.17s-1.94.35-2.48,1.44a19.16,19.16,0,0,1-2.94,3.49c-.63.72-2,1.84-2.3,2.76-.21.63.37,1.42.68,2.09.41.92.72,2.46,1.89,2.66a4.67,4.67,0,0,0,1.8-.33c.7-.17,1.45-.2,2.14-.39,1.26-.33,2-1.52,2.76-2.45s1.88-2.75,3.13-3.26,2.5.5,3.52,1l1.81,1a6.51,6.51,0,0,0,1.91,1c1,.1,1.77-1.26,2.38-1.94a18.19,18.19,0,0,1,1.75-1.87c1.21-1,2.33.43,3.17,1.3,1.14,1.16,2.23,2.38,3.42,3.48,1.94,1.8,5.62.8,8,.34-.84-.59-4.21-2.35-3.88-3.61.41-1.59,3.72.87,4.43,1.29l2.61,1.57c.43.26,2,1.05,2.1,1.63s-1,1.66-1.4,2c-.56.59-1.19,1.12-1.77,1.7-.74.75-1.46,1.52-2.18,2.3s-1.28,1.65-2.12,2-1.55.09-1.64-.81.76-1.52,1.23-2c1-1,1.86-2.11,2.79-3.17a13.4,13.4,0,0,0-4.42-.24c-.68.06-2.33-.11-2.88.22-.22.13-.31.36-.47.64a19.28,19.28,0,0,1-2.48,3.61,11.88,11.88,0,0,1-1.61,1.48,4.08,4.08,0,0,1-.76.52c-.78.28-.18.23-.72,0-1.21-.49-2.38-1.86-3.4-2.68-.63-.51-1.52-1.53-2.41-1.28-.66.19-1.12,1-1.52,1.52-.56.69-1.15,1.37-1.72,2.06s-.75,1.1-1.53.9S69,52.6,68.38,52a43.37,43.37,0,0,0-3.47-3.31,3.63,3.63,0,0,0-3.17-.51,5.24,5.24,0,0,0-2.93,1,3.38,3.38,0,0,0-.79,1.7,15.39,15.39,0,0,1-1.12,2.81c-.27.54-.85,1.18-.61,1.68s.86.79,1.15,1.05L61.38,60a27.81,27.81,0,0,0,3.86,3.51c.58.34.28.37,1.1-.14.5-.32,1.29-1,1.9-1.06s1,.51,1.47.89c-.87,1-2.38,2.15-1.1,3.45,1.5,1.54,3.28-.54,4.76-1.15a9,9,0,0,1,5.87-.27,6.7,6.7,0,0,1,4.27,3.43c-1.17.57-1.94-.06-2.91-.68a7.24,7.24,0,0,0-3.39-1.19c-2.41-.17-4,1-5.79,2.43,1,1,2,1.89,3,2.77.89.74,3.57,2.21,2.83,3.66-.85,1.65-2.79-.77-3.48-1.42-1.07-1-2.19-1.94-3.35-2.85-1.16,2.57-.39,4.78.48,7.28.23.68.79,2.19-.53,2.13s-2-2.42-2.39-3.35a9.65,9.65,0,0,1-.62-3.76,10,10,0,0,1,.31-2,7.11,7.11,0,0,0,.51-2A2.2,2.2,0,0,0,66,68c-1.22.3-1.34,2.12-2.63,2.43-3,.71.33-3.1.74-3.88.11-.21.31-.35.27-.54s-.81-.83-1-1c-1.11-1.14-2.26-2.21-3.43-3.28s-2.35-2.18-3.55-3.23c-.93-.8-1.59-1.24-2.8-.83-.75.25-1.45.63-2.2.88-.33.1-1.38.21-1.56.48-.27.43,0,2,0,2.54A6.94,6.94,0,0,0,50.17,64a4.78,4.78,0,0,0,1.74,1.51c1.12.75,3.09,1.59,3.76,2.81s-.61,2.19-1.33,3c-1,1.08-1.85,2.21-2.77,3.31a23,23,0,0,0,2.5,1.72,10,10,0,0,1,2.74,1.52c1.65,1.76-1.36,3.83-2.47,4.93C53,84.08,51.16,85.4,51,87.42a17.34,17.34,0,0,0,.29,3c.07,1,.1,1.92.18,2.87l2.7-3.19a22.61,22.61,0,0,1,2-2.27c.7-.62,2.37-.9,2.1.52-.19,1-1.76,2.24-2.39,3l-2.71,3.14C52.74,94.85,51.92,96.26,51.21,96.26ZM50.88,77.2a8,8,0,0,0-.17,3.47c0,.61-.28,1.65.34,1.9s1.33-.88,1.78-1.33,1.79-1.41,1.84-1.88-1.08-1.22-1.44-1.42c-.71-.4-1.53-.61-2.28-.94Zm-3-.79c-1,.61-2.22,1.84-2,3.16.19,1.11,1.62,1.28,2.48,1.73a21.18,21.18,0,0,0-.25-5Zm-2.49-5.8L47.94,72c0-.76.39-3-.09-3.57C47.21,67.75,45.8,70.12,45.39,70.61Zm4.79-3c.06.79-.18,3.25.61,3.49s2.05-1.86,2.59-2.48l-1.77-1C50.87,67.25,50.86,67.09,50.18,67.58ZM48.73,41A7.74,7.74,0,0,0,43,54c1.56,1.73,3.53,2,5.73,2.33,4.41.65,7.36-3.51,7.16-7.6-.09-1.72-.43-4.13-1.63-5.45A7.56,7.56,0,0,0,48.73,41ZM17.6,51a4.19,4.19,0,0,0,1.86,1.93c.36.2,1.57,1,1.89.92.91-.24,1.83-2.27,1.92-3.13h-5.8Zm10.07-.26c.7.86,1.83,3.07,3.12,2.72,1.13-.31,2-2.17,2.1-3.18Zm40-2.15a16,16,0,0,0,2.56,2.39c.57.32.59.29,1.26-.31.42-.38,1.63-1.78,1.49-2.42s-2-.36-2.59-.36a9.36,9.36,0,0,0-2,0C67.93,48,68,48,67.7,48.55Zm10.08-.66c1.13.91,2.23,1.94,3.43,2.76.69.47.45.39,1.15-.29a4.66,4.66,0,0,0,1.84-2.88Zm-57.1-3.38c-1.6,0-3.3,2.44-4.1,3.6h8.1l-1.16-1.23C22.82,46.15,21.79,44.51,20.68,44.51Zm9.41,1.57a4.29,4.29,0,0,0-1,1.76h3.48c-.65-.82-1.3-1.64-1.94-2.47ZM81,42.42c-.85,0-2,1.5-2.19,2.24-.32,1.1.93.89,1.82.89a14.91,14.91,0,0,0,3.25-.47C83.14,44.22,82.24,42.42,81,42.42Zm-11,.27c-1.25,0-2.37,1.84-2.74,2.84h5.74c.47,0,1.54.16,1.16-.71-.11-.26-1.12-.66-1.37-.8C71.93,43.55,70.9,42.69,69.94,42.69ZM47.21,25.11q.13,3,.29,6l4.86-3.61-2.84-1.77a6.41,6.41,0,0,0-1.44-.9C47.67,24.73,47.64,24.82,47.21,25.11Zm-5.12,3.47L45,31a12.1,12.1,0,0,0-.52-5.54ZM44,16.66c-.88,1-3.07,3-1.81,4.42.49.53,2.2,1.59,2.55.7s0-2.58,0-3.52C44.71,17.85,45,16.06,44,16.66Zm3.65-.89c-.94,0-.46,3.91-.46,4.7.8-.56,2.47-1.43,2.66-2.5S48.47,16,47.62,15.77Z"/><path class="cls-1" d="M48.14,49.9c-2.1,0-1.23-2.72.67-2.1C50.37,48.32,49.48,49.94,48.14,49.9Z"/></g></g></svg>