<svg xmlns="http://www.w3.org/2000/svg" viewBox="0 0 19.45 50.59"><defs><style>.cls-1{fill:#ffe82c;}</style></defs><g id="Lager_2" data-name="Lager 2"><g id="_ÎÓÈ_1" data-name="—ÎÓÈ_1"><path class="cls-1" d="M10,50.59c-1.68-.05-1.32-4.07-1.36-5.05a43.82,43.82,0,0,0-.42-4.71L6,42.9c-1.26,1.18-2.76,2.83-4.36,3.56C1,46.75.08,46.7,0,45.8c0-.63.64-1.23,1-1.61,1.46-1.37,3.06-2.63,4.58-3.94s2.78-2.14,2.8-4.36c0-1.36.46-3.66-.84-4.51S5,30,4,28.65a5.94,5.94,0,0,1-1.09-3.8,6.48,6.48,0,0,1,1.84-3.91C6,19.68,8.09,19.12,8.19,17.18s0-4,0-6a34.9,34.9,0,0,0,0-5C8,5,7.58,5.19,6.71,5.89S5.32,9.1,3.83,8.28,4,5.83,4.59,5c1-1.49,2-3.41,3.4-4.53C9.93-1,11.5,1.35,12.86,2.64c.88.83,2.69,2.07,3.25,3.23.3.6.19.47-.33,1s-.59.75-1.35,0c-1.28-1.19-2.16-2.64-3.87-3.3-.52,3.12-.19,6.47-.18,9.63,0,1,0,2,0,3,0,1.48.07,2.18,1.52,2.74,2.66,1,5.47,3.19,5,6.37A5.44,5.44,0,0,1,15,28.7c-1.2,1.09-3.05,1.87-4.06,3.11-.78,1-.41,2.65-.47,3.81a3.28,3.28,0,0,0,1.31,3.22c2,1.47,4.34,2.57,6.4,4,.31.21,1.26.71,1.31,1.19a2.17,2.17,0,0,1-.86,1.28c-.18,0-.73-.45-.86-.54L13.4,42.08c-.59-.37-2.31-2-2.76-.88a10.78,10.78,0,0,0-.13,2.55,8.89,8.89,0,0,0,.38,2.76C11.13,47.56,11.38,50.14,10,50.59Zm.35-30.08c-2.82-.08-5.62,2.78-5.2,5.68.38,2.56,2.86,3.61,5.16,3.48,1.94-.1,4.55-2.22,4.68-4.24A4.46,4.46,0,0,0,10.35,20.51Z"/></g></g></svg>