<svg xmlns="http://www.w3.org/2000/svg" viewBox="0 0 18.37 49.79"><defs><style>.cls-1{fill:#ffe82c;}</style></defs><g id="Lager_2" data-name="Lager 2"><g id="_ÎÓÈ_1" data-name="—ÎÓÈ_1"><path class="cls-1" d="M11.09,17.34c0-.66-.12-1.38-.14-1.72-.07-1-.1-2.11-.11-3.16,1.31,0,3.49.22,4.37-.58.51-.46.82-1.36.15-1.78a3.61,3.61,0,0,0-1.43-.16,28.58,28.58,0,0,0-3.07.18c0-.89,0-1.77,0-2.66,1.32,0,3.5.22,4.38-.58.51-.46.82-1.36.15-1.78a3.61,3.61,0,0,0-1.43-.16,28.58,28.58,0,0,0-3.07.18H10.8c0-.83-.07-1.66-.13-2.49s0-2.18-.85-2.56S8.51.56,8.51,1.28c0,1.34.07,2.66.13,4a30.27,30.27,0,0,0-3.71.38c-1.85.33-1,2.06.52,2.06,1.1,0,2.2-.07,3.3-.15,0,.9.05,1.8,0,2.7a32.38,32.38,0,0,0-3.85.39c-1.85.33-1,2.06.52,2.06,1.07,0,2.14-.07,3.22-.14a15,15,0,0,0,.07,3.07A9.08,9.08,0,0,0,9,17.5a8.8,8.8,0,0,0-6.92,6.69c-1,4.53,2.55,7.79,6.76,8.16,0,1.63.09,3.24.18,4.84A6.54,6.54,0,0,0,8,37.73a27.55,27.55,0,0,0-2.55,1.7c-1.6,1.14-3.37,2.18-4.85,3.46S.7,45.2,2.06,44.4s2.78-1.81,4.16-2.72a31.56,31.56,0,0,0,2.9-1.78c0,.86,0,1.71,0,2.57-.25.13-.49.29-.66.38a29.12,29.12,0,0,0-2.56,1.7C4.26,45.68,2.49,46.73,1,48s.14,2.31,1.5,1.51S5.27,47.7,6.65,46.8C7.2,46.44,8.15,46,9,45.44c0,.42,0,.85.1,1.29.11.93,0,2.09.89,2.7,2,1.45,1.38-1.87,1.32-2.72-.23-3.18-.08-6.38-.12-9.56,0-1.15-.07-2.29-.16-3.43a12.23,12.23,0,0,0-.13-1.47c3.68-.76,7-4.83,7.45-8.41C18.83,20.05,14.6,17.58,11.09,17.34ZM16.53,24c-.16,3.43-3.72,6.33-7,6.43S3.33,28,4.31,24.5A7.15,7.15,0,0,1,11,19.15c1.75,0,2.64.67,4,1.57A3.3,3.3,0,0,1,16.53,24Z"/><path class="cls-1" d="M9.91,23.75A1.14,1.14,0,1,0,9.73,26,1.14,1.14,0,1,0,9.91,23.75Z"/></g></g></svg>