<svg xmlns="http://www.w3.org/2000/svg" viewBox="0 0 24.22 51.7"><defs><style>.cls-1{fill:#ffe82c;}</style></defs><g id="Lager_2" data-name="Lager 2"><g id="_ÎÓÈ_1" data-name="—ÎÓÈ_1"><path class="cls-1" d="M2.55,51.56a4.66,4.66,0,0,1-.91-4.08,2.35,2.35,0,0,1,2.5-1.78c1.05,0,2.87.37,3.82-.19S8.73,43,8.82,42c.27-3-2.66-3.37-3.87-5.59A8.68,8.68,0,0,1,5.05,29a6.12,6.12,0,0,1,2.24-2.44,8,8,0,0,0,1.53-.87c.67-.66.5-1.54.51-2.42,0-1.6,0-3.21,0-4.81a5.5,5.5,0,0,0,0-1.86c-.14-.31-1-.64-1.37-.84-.74-.44-1.49-.87-2.22-1.33a13.45,13.45,0,0,1-3.5-2.91C.79,9.66-.41,6.37.13,4,.44,2.68,2,3.07,2.24,4.29a19.24,19.24,0,0,0,.83,4.14,9,9,0,0,0,6.51,5.24,27.65,27.65,0,0,0-.17-3c-.18-1-.9-1.35-1.7-1.86A6.53,6.53,0,0,1,5.19,6.31a4.8,4.8,0,0,1-.4-3.5,1.2,1.2,0,0,1,2.08,0c.2.44-.08,1.05,0,1.53a2.59,2.59,0,0,0,.53,1.33A8.67,8.67,0,0,0,9.59,7.44c0-1.46-.71-8,1.69-7.39,1.34.37.87,3.47.83,4.46S12,6.61,12,7.66a4.23,4.23,0,0,0,3.13-2.53c.49-1,.63-4,1.92-4.27s1.13.79,1.06,1.63A9.18,9.18,0,0,1,17.48,5a9.34,9.34,0,0,1-3.22,4.27c-.61.44-1.54.69-2,1.31A3.53,3.53,0,0,0,12,13c0,.34,0,.69.16.87.49.5,1.82.07,2.35-.09,3.33-1,5.14-3.72,6.58-6.75.55-1.16.63-3.87,2.33-3.85,1.95,0-.25,3.48-.65,4.39-1.12,2.55-2.15,5.36-4.45,7.08a10.57,10.57,0,0,1-4.52,1.81c-.49.09-1.45.06-1.76.55-.17.25-.09,1-.12,1.29-.1,1-.2,2.1-.26,3.16,0,.62-.05,1.25,0,1.87,0,.42-.16,1.59.08,1.92s.75.26,1.19.33a10.28,10.28,0,0,1,2.86.92,5.15,5.15,0,0,1,2.57,1.94c.53,1,.13,2-.21,3-.7,2-1.15,4-2.64,5.6a9.07,9.07,0,0,1-2.36,1.77c-.81.43-1.55.6-1.78,1.55A29.65,29.65,0,0,0,11,45.21c3,0,6.11-.22,9,.29.89.15,1.12.34,1.2,1.22a10.86,10.86,0,0,1,.16,2.9c-.32,1.83-1.66.88-2-.38-.13-.49-.13-1.09-.57-1.36a3.5,3.5,0,0,0-1.61-.15H13.85c-.72,0-2-.24-2.57.46s.11,1.24-.1,1.85a2.07,2.07,0,0,1-.59.69c-.41.44-.51.74-1.07.48-1.27-.59-.25-2.52-1.71-3-.46-.16-3.44-.34-3.74,0s0,1.58,0,2C3.93,50.7,3.2,52.15,2.55,51.56ZM12.86,27.71c-2.63,0-5.33.8-6,3.65-.65,2.61.41,5.93,3.54,5.93C15.2,37.29,19.6,27.65,12.86,27.71Z"/><path class="cls-1" d="M10.78,34c-1.49,0-2.49-2.46-.6-2.69C11.81,31.06,12.29,34,10.78,34Z"/></g></g></svg>