<svg xmlns="http://www.w3.org/2000/svg" viewBox="0 0 22.54 41.11"><defs><style>.cls-1{fill:#ffe82c;}</style></defs><g id="Lager_2" data-name="Lager 2"><g id="_ÎÓÈ_1" data-name="—ÎÓÈ_1"><path class="cls-1" d="M14.44,40.86A45.56,45.56,0,0,1,9.82,37c-1-.87-3.41-2.25-3.58-3.69S8.08,30.08,8.87,29c1.21-1.63,2.49-2.93,2.4-5.05s-.16-4-.4-6-1.69-3.12-3.09-4.45-3-2.79-4.48-4.23C2.07,8.06.06,6.6,0,4.81c2,0,3.63,2.1,5,3.34.81.74,1.62,1.49,2.45,2.22.55.48,1.83,1.84,2.58,1.91,1.14.11.36-3,.29-3.61-.26-2.08-2.12-3.11-3.63-4.39-.63-.54-2-1.3-2.08-2.22s1-.91,1.65-.57a31.13,31.13,0,0,1,4.47,3.34c.36.28.53.55.85.43.75-.28,1.71-2.13,2.14-2.8S14.44.66,15.07.21a1,1,0,0,1,.7-.21c.78,0,1,.23.92.92C16.52,2.79,15,5,13.73,6.39c-.77.84-1.38,1-1.34,2.19s.21,2.37.32,3.54c.09,1,.2,2,1.23,1.05,1.75-1.56,3.31-3.34,4.92-5,.61-.65,1.41-1.84,2.26-2.19a1.08,1.08,0,0,1,.81-.05c.71.17.68.46.48,1-.52,1.53-2.08,2.72-3.21,3.8-1.5,1.45-2.93,3-4.31,4.54a5.55,5.55,0,0,0-1.67,2.63,12.22,12.22,0,0,0,.12,3.36,8.68,8.68,0,0,0,.54,3.37c.58,1,1.88,1.73,2.78,2.46,1.1.88,2.19,1.78,3.26,2.68.53.43,1.71,1.14,1.83,1.88.15.94-1.2,2.25-1.7,3-.82,1.15-1.65,2.29-2.48,3.43-.52.72-1,1.44-1.56,2.14a5.7,5.7,0,0,1-.42.55C15.12,41.21,15,41.22,14.44,40.86Zm-.92-13.51a6.11,6.11,0,0,0-2.14,2.23c-.81,1.06-2.77,2.71-1.88,4.1a15.68,15.68,0,0,0,3.25,3c.72.61,1.45,1.2,2.18,1.8a33.41,33.41,0,0,0,2.35-3.3c.64-1.09,2.14-2.55,1.16-3.81a22.41,22.41,0,0,0-3.56-3C14.57,28.08,13.9,27.28,13.52,27.35Z"/><path class="cls-1" d="M14.24,34c-1.55,0-2.55-3-.37-2.82C15.47,31.29,16.1,33.72,14.24,34Z"/></g></g></svg>