<svg xmlns="http://www.w3.org/2000/svg" viewBox="0 0 27.82 60.94"><defs><style>.cls-1{fill:#ffe82c;}</style></defs><g id="Lager_2" data-name="Lager 2"><g id="_ÎÓÈ_1" data-name="—ÎÓÈ_1"><path class="cls-1" d="M25.07,60.94c-.45,0-.49-.61-.55-.94a3.36,3.36,0,0,0-.41-1.49A12.46,12.46,0,0,0,21,55.06c-.84-.61-.75-.7-1.29-.09S18.54,56.46,18,57.19a12.41,12.41,0,0,1-1.43,1.86c-.07.06-.21.38-.3.4-.49.1-1.53-.91-1.93-1.21-1-.75-2.74-2.74-4.12-2.47s-2.55,1.94-3.5,2.83c-.66.61-1.36,1.67-2.29,1.76-1.86.17-1.6-2.7-1.63-3.85-.09-3.71,0-7.42-.11-11.12-.16-7.32-.15-14.54-.81-21.83C1.28,17.21.64,10.87.18,4.5.08,3.19-.67-.94,1.88.19c1.16.52,1.88,2,2.91,2.75C6.2,4,7.77,4.81,9.19,5.86s2.61,1.83,4,2.63c1.72,1,2.84-.62,4.17-1.67,1.82-1.44,4.09-2.74,5.61-4.5.63-.72,1.47-1.91,2.46-.79s.33,3.42.32,4.65c0,3.15,0,6.29-.1,9.44-.15,8.84.19,17.67.38,26.51.09,3.95.18,7.9.58,11.83A19.31,19.31,0,0,0,27,57c.21.76.92,1.61.86,2.43S26,60.94,25.07,60.94ZM5.13,52.1a6.43,6.43,0,0,0,.1,4.37l3-2.65-3-2Zm9.54-.45c-.83,0-2.49,1.45-2.13,2.17S14.41,55.1,15,55.49c.1.07.55.49.69.48s1.19-1.17,1.3-1.31C18.18,53.07,16.24,51.65,14.67,51.65Zm7.28.82,1.5,1.39c.85-1,.64-1.88-.19-2.84ZM4.45,30.38c-.2,2.46,0,5,0,7.46,0,2.68,0,5.37,0,8.06,0,2.53,1.11,3.5,3.14,4.81a9.36,9.36,0,0,0,1.61,1c.55.21.17.21.64,0,1.75-.69,3.4-4.55,5.52-3.18.92.59,1.83,1.21,2.78,1.76,1.29.76,1.93.08,2.81-.89,1.46-1.63,2.95-2.49,2.92-4.88-.05-5.3-.23-10.66-.78-15.93L15.94,34.8a15,15,0,0,1-1.54,1.33c-.72.44-.6.21-1.39-.47a60.77,60.77,0,0,0-8.49-6.21C4.5,29.76,4.48,30.07,4.45,30.38Zm9.24-18.62c-1,0-2.15,1-3,1.44-1.22.68-2.43,1.36-3.63,2.06A18,18,0,0,0,4,17.51c-.84.79-.69,1.54-.48,2.61.39,2,0,4.42,1.22,6.23s3.66,3,5.46,4.27L13.44,33c.14.1.71.63.89.63s1-.88,1.16-1l4-3.68c.86-.79,1.73-1.58,2.57-2.39A3.52,3.52,0,0,0,23.3,23.6a24.76,24.76,0,0,0,.25-4.38C23.39,17.93,22,17.3,21,16.63c-1.25-.88-2.49-1.78-3.73-2.67C16.34,13.28,14.92,11.76,13.69,11.76ZM2.8,6.15a29.2,29.2,0,0,0,.48,9.42l8.57-5.43L2.91,4.38C2.87,5,2.84,5.56,2.8,6.15ZM22.41,6c-2.3,1.16-4.07,3.15-6,4.79l7.14,4.8-.21-5.36L23.2,7C23.18,6.35,23.25,5.91,22.41,6Z"/></g></g></svg>