<svg xmlns="http://www.w3.org/2000/svg" viewBox="0 0 133.92 131.44"><defs><style>.cls-1{fill:#ffe82c;}</style></defs><g id="Lager_2" data-name="Lager 2"><g id="_ÎÓÈ_1" data-name="—ÎÓÈ_1"><path class="cls-1" d="M35.07,96.48a1.08,1.08,0,1,1,.29-2.09A1.06,1.06,0,0,1,35.07,96.48Z"/><path class="cls-1" d="M94.19,37c-1.64,0-1.72-2.91-.11-2.64C95.39,34.55,95.81,37,94.19,37Z"/><path class="cls-1" d="M63.19,131.44c-1.18,0-1.38-.9-1.37-1.87,0-1.45.06-2.91.1-4.36a40.34,40.34,0,0,0,.08-7.12c-1.34,1-2.71,2.08-4,3.15-1,.86-2.74,3.75-4.25,3.06-2.45-1.11,1.6-3.81,2.5-4.61,1.43-1.28,2.94-2.47,4.46-3.66a41.28,41.28,0,0,0-5.25-4.43,20.09,20.09,0,0,1-3.81-3c-.92-1.12-.82-2.43-.87-3.8s-.54-3.21-.19-4.47,1.72-1.38,2.79-1.5c3.08-.34,6.17-.12,9.16-1-1-1.15-2-2.23-3.14-3.29l-2.16-2c-.48-.45-1.72-1.24-1.91-1.9-.29-1,1.71-2.37,2.32-3s1.29-1.28,1.92-1.93c.23-.23.94-.79,1-1.14s-1-1.32-1.44-1.73c-.61-.61-1.22-1.22-1.85-1.81-.44-.42-1.37-1-1.54-1.63-.46-1.69,2.1-.32,2.65,0,1.25.85,2.37,1.9,3.53,2.84a11.19,11.19,0,0,0,.5-3.92c0-1.15.51-3.09-.35-4a4.17,4.17,0,0,0-3-1.13c-.88.18-1.48,1.25-2,1.89-2.32,2.63-4.83,5.11-7.24,7.67-1.14,1.22-2.28,2.43-3.41,3.65-.52.55-1,1.11-1.54,1.66s-1.57,1.32-1.65,2.15c-.1,1,1.12,2,1.24,3.14.16,1.55-.62,3.1-1.24,4.46-1.16,2.56-2.47,4.43-5.17,5.47a11.75,11.75,0,0,1-3.71.77,7.82,7.82,0,0,1-2.26-.22,6.58,6.58,0,0,0-1.81-.53c-1,0-1.77,1.13-2.37,1.85a1.93,1.93,0,0,0-.35,2.37,8.21,8.21,0,0,1,.63,4.69c-.18,1.09-.68,3.8-2.2,3.54s-.58-2.57-.46-3.57a7.22,7.22,0,0,0-.33-3.78l-1.87,2c-.69.73-1.92,2.53-3,2.69-.78.13-1.56-.33-1.33-1.07s1-1.26,1.47-1.76l2.76-3.24a4.19,4.19,0,0,0-4-.34,4.37,4.37,0,0,1-2.58.39c-1-.27-1.23-.92-.38-1.52,1.19-.86,3.5-1.22,4.92-1.36a8.26,8.26,0,0,1,2.72.33,2,2,0,0,0,2.1-.83c.5-.52,1-1,1.48-1.61s.37-.3.19-.83c-.54-1.66-2-2.92-2.44-4.67-.88-3.49,1.72-7.45,4.65-9.2a8.85,8.85,0,0,1,5.22-1.22,12.44,12.44,0,0,1,3.07.7c.89.3,2,1.17,3,1.17,1.2,0,2.31-1.77,3.07-2.54,1.11-1.14,2.23-2.28,3.34-3.43q3.18-3.3,6.32-6.66a32.54,32.54,0,0,0,3-3.54c.57-.82.19-1.75-.29-2.65-1.05-2-3-2.17-5-2.09-1.49.06-3-.18-4.52-.05a1.67,1.67,0,0,0-1.63,1.26A13.63,13.63,0,0,1,44,71.92c-.52.8-1.61,2.87-2.53,3.16s-1.6-.47-1.27-1.38c.45-1.23,1.73-2.18,2.26-3.45.42-1,1.19-2.67-.25-3.16s-2.14.58-2.7,1.67-3.81,7.79-5.4,5.18c-.55-.9,1.21-2.47,1.7-3.18A12.51,12.51,0,0,0,37.5,67c-1.41,0-2.83-.11-4.24-.12s-2.24,0-2.37,1.46c-.11,1.31,0,2.67-.05,4s-.05,2.73,0,4.1,0,2.28-1.45,2.5A43.67,43.67,0,0,1,24.1,79c-.7,0-2,.3-2.28-.59C21.42,77,25,77,25.77,76.89s2-.15,2.42-.88c.65-1,.27-3.24.27-4.34s.49-3.46-.36-4.3-2.92-.33-4-.29c-3.66.11-7.57.6-11.21.15A66.85,66.85,0,0,0,1.79,67C1.15,67,.18,66.8,0,66S.67,65.1,1.26,65c1.09-.28,2.21-.49,3.31-.74C3.75,63,2.86,61.81,2,60.61c-.28-.39-1.12-1.46-.69-2,.62-.78,1.89.28,2.26.66,1.23,1.24,2.2,2.71,3.4,4s2.24,1.47,3.87.6c-1.52-2.4-3.39-4.48-5.12-6.72C5.08,56.33,3.82,55,3.58,54c-.36-1.44,1.22-1.26,1.94-.51,1.13,1.17,2.12,2.58,3.14,3.84s2,2.51,3.05,3.77a14.34,14.34,0,0,0,2.8,3.21c1.09.73,2.19.56,3.41.46a28.19,28.19,0,0,1,4.11,0,32.52,32.52,0,0,0,3.82.25c.61,0,2.12,0,2.39-.38a7,7,0,0,0,.11-2.25c0-.77,0-1.53,0-2.3,0-1.08.3-3.56-.53-4.38s-7.24-.48-6.27-2.21c.38-.67,1.78-.28,2.37-.26,1.28.06,2.58-.15,3.84-.07,2.66.16,2.54,2.76,2.61,4.77.05,1.64.07,3.3.18,4.94.06.9-.12,1.64.71,1.92a13.52,13.52,0,0,0,4.12.14c1.3,0,2.84,0,2.4-1.7a12.21,12.21,0,0,0-1.05-2.6c-.61-1.13-1.56-1.64-2.34-2.57-1-1.13-.07-1.81,1.13-1.42a6.15,6.15,0,0,1,3,2.42c1.1,1.67,1.18,4,2.31,5.61a1.66,1.66,0,0,0,1.95.4c1.2-.46.62-2.2.34-3.15a7.13,7.13,0,0,0-1.87-3c-.49-.51-2.54-2.18-1.7-3,1.6-1.48,4.82,3.07,5.36,4.2a14.2,14.2,0,0,1,1,4c.12.86,0,.91.79,1,1.94.22,4,.15,5.92.22.84,0,2.13.34,2.78-.39a6,6,0,0,0,.73-2,8,8,0,0,0,.52-2.09c0-1.4-1.49-2.31-2.4-3.18l-3.59-3.44L46,49.81c-1.18-1.12-2.4-2.56-4-3a11.22,11.22,0,0,0-2.09-.21l-1.91-.12a7.89,7.89,0,0,1-2.43-.15c-.91-.39-1-1.77-1.29-2.6a24.33,24.33,0,0,0-1.62-4.57,13.2,13.2,0,0,0-2.88-3,20.21,20.21,0,0,0-2.13-1.9c-.55-.38-.38-.42-.92.13-.9.9-1.85,1.75-2.81,2.59s-2,2.06-3.27,1.58a7.28,7.28,0,0,1-1.69-1.24c-.46-.36-1.56-1-1.79-1.56a1,1,0,0,1,.72-1.32c.59-.19,1,.13,1.47.46.84.6,1.65,1.46,2.75,1a7.59,7.59,0,0,0,2.65-2.69c.57-.83.74-.85,0-1.52s-1.49-1.32-2.22-2c-.34-.31-1-.76-1-1.3a1.3,1.3,0,0,1,1.12-1c.93,0,2.19,1.44,2.84,2,1.41,1.12,1.8.7,2.87-.61.33-.42,3.05-3.16,2.91-3.77-.08-.33-1.17-1-1.43-1.19-.52-.43-1.05-.85-1.56-1.3s-1.19-.89-.58-1.64c1-1.29,2.59.41,3.5,1.06s2.48,1.39,2.65,2.63-1.15,2.4-1.86,3.27S28.66,31,29,32.14c.22.83,1.39,1.68,2,2.23a4.57,4.57,0,0,0,3.44,1.32c1.6,0,3.17,0,4.78.09,1.18.08,2.39,0,3.08,1.12a14.46,14.46,0,0,1,1.09,3.75,20.62,20.62,0,0,0,1.37,4.63,16.25,16.25,0,0,0,3,3.06L51.52,52c2.07,2,4.14,3.95,6.26,5.88.78.71.71.6,1.77.21s2.72-.75,3.17-2.11A6,6,0,0,0,62.09,51c-1.53-1.94-3.87-3.14-5.53-5-.92-1-.72-1.64.1-2.66,1.05-1.3,2.19-2.55,3.28-3.81.85-1,2.4-2.18,2.69-3.48a2.44,2.44,0,0,0-.1-1.54c-.16-.2-.18-.07-.47-.19-1.23-.49-3-.26-4.33-.28s-3.43.26-4.76-.33c-1-.45-1.13-1.45-1.23-2.46-.16-1.6-.32-3.24-.37-4.85,0-.88.41-1.78,1.46-1.18s.84,3.07.92,4.11c.07.87,0,2,.81,2.52s2.83.14,3.9.14,3.65.5,4.25-.72a6.6,6.6,0,0,0,.22-2.58c0-1.65-.15-3.3-.23-4.95-.32-6.51.13-13,.37-19.55,0-1-.27-2.62.19-3.5.58-1.11,1.77-.94,2,.16a12.62,12.62,0,0,1,.15,3.63,9.75,9.75,0,0,0-.11,3C65.74,9.48,68,11,69.41,12.3a6.56,6.56,0,0,1,2.06,2.62c.58,1.76-.72,1.42-1.76,2.2a9,9,0,0,0-2,2.69,26.8,26.8,0,0,0-1.92,3.53,8.5,8.5,0,0,0-.58,3.86c.06,1.2-.67,3.59.25,4.53s3.06.34,4.1.33,2.3,0,3.43-.07c.92-.1.88-.08.93-.86.07-1.14,0-2.3,0-3.44,0-.77-.18-2.15.28-2.81a1,1,0,0,1,1.74.21c.56,1.1.14,3.09.28,4.32s.9,3.14.29,4.07-2.15.84-3.18.79c-1.59-.07-3.19,0-4.78,0C67.15,34.35,65.05,34,65,36c0,1.22.83,1.7,1.77,2.25a13.92,13.92,0,0,1,3.52,2.62c1.1,1.28,1,2.3,0,3.62s-1.82,2.61-2.71,3.94c-.18.26-1.18,1.52-1.05,1.88s.91.59,1.12.72l4,2.58c.36.23,1.83,1.51,2.24,1.42.22,0,.65-.71.79-.87l1.51-1.69,8.82-9.81c.62-.68,1.75-1.52,1.65-2.54A4.4,4.4,0,0,0,86,38.72a8.41,8.41,0,0,1-.85-2.42,7,7,0,0,1,2.58-6.62,8.73,8.73,0,0,1,8.37-1.56c.55.2,1.1.62,1.7.38a2.38,2.38,0,0,0,1-1.45,4.38,4.38,0,0,0-.36-3,6.88,6.88,0,0,1-.55-3.86c.21-.78,1.12-2.76,2.22-2.25s0,2.49-.09,3.31a6,6,0,0,0,1.15,3.32l4.65-4.94c1.74,1.79.47,2.89-.92,4.47-.71.82-1.43,1.63-2.15,2.45a5.48,5.48,0,0,0,3.74.22c1.42-.45,2.4-1.53,3.77-2.06.59,1.81-.11,3-1.81,3.68a8.85,8.85,0,0,1-6.76,0c-.65-.22-.52-.24-.94.14a6.08,6.08,0,0,0-1.18,1.68c-.17.53,0,.57.38,1.13a14.34,14.34,0,0,1,1.77,2.73c1.79,4.6-2.54,7.81-6.52,8.81a7.91,7.91,0,0,1-3.49.15c-1.1-.22-2.37-1.17-3.49-.76S86.34,44.2,85.62,45c-1,1.11-1.92,2.21-2.88,3.3L75.6,56.44c-.73.82-1.47,1.64-2.19,2.48s-1.49,1.56-1.51,2.57A8.13,8.13,0,0,0,72.7,64a1.32,1.32,0,0,0,1.45.78c1.47,0,2.95-.18,4.43-.22.88,0,2.11.21,2.76-.54s.78-2.24,1.08-3.17c.66-2,1.8-4.34,3.82-5.27.88-.4,2,0,1.46,1.06-.2.39-.72.72-1,1.05a10.33,10.33,0,0,0-1.06,1.49,11.87,11.87,0,0,0-1.39,3.78c-.18,1-.4,1.15.57,1.4,1.16.31,1.58,0,2-1.12.56-1.39,1.06-2.8,1.66-4.17a5.62,5.62,0,0,1,1.91-2.75c.84-.46,2.35-.08,1.84,1.09a11.54,11.54,0,0,1-1,1.28,10,10,0,0,0-.91,1.89c-.4,1-.71,2.08-1.14,3.1a11.15,11.15,0,0,0,4.66.49c1.68-.17,2.31-.44,2.27-2.12-.05-2.45-.38-5-.21-7.49.09-1.2.37-2.19,1.65-2.38a32.78,32.78,0,0,1,6.1.14c.86,0,2.86-.09,3.14,1,.49,1.91-2.16,1.33-3,1.27a34.61,34.61,0,0,0-4.2-.15c-2,.11-1.51,2.41-1.48,3.85s.16,3,.27,4.52c0,.2-.05,1,.09,1.19s1.37.23,1.72.25a14.29,14.29,0,0,0,2.46-.35c.69-.06,1.47,0,2.17,0l6.22-.3c4.45-.19,8.9-.32,13.35-.45,1.93-.06,3.86-.12,5.79-.11.82,0,3.05-.31,3.64.39s-.73,2-1.34,2.21c-.85.26-2.24-.39-3.12-.45a5.34,5.34,0,0,0-2.37.36c1.56,1.73,3.54,2.91,5.32,4.41.72.6,1,1.55-.21,2-.74.3-1.29-.33-1.83-.77-2-1.59-3.75-3.49-5.74-5-1.6-1.23-3.81-1.07-5.65-.51,2.75,2.26,5.8,4.14,8.75,6.12.75.5,1.51,1,2.25,1.5a3.17,3.17,0,0,1,.76.54c.53.72-.29,1.43-.65,2.12-4.44-2.43-8.47-5.73-12.62-8.62a7.21,7.21,0,0,0-2.8-1.51,22.48,22.48,0,0,0-3.76-.13c-2.22,0-4.37.55-6.59.55-1.36,0-5.16-.93-5.73.83a13.62,13.62,0,0,0,0,3.72c0,1.49,0,3,.05,4.47,0,.88-.38,2.76.61,3.07a12.85,12.85,0,0,0,3.22,0H106c.78,0,2.43-.44,3,.12s-.13,1.69-.51,2.09c-.61.63-1.85.17-2.74.14a48.72,48.72,0,0,0-6.81-.24c-2.11.24-2.64-.87-2.69-2.82,0-1.61,0-3.22,0-4.83s0-3.32,0-5c0-.69,0-1.3-.74-1.57s-2.1.07-3,0-2.53-.51-2.84.66c-.28,1,1,2.5,1.52,3.27s2,2.25,1.89,2.81-1.06,1.35-1.67,1.14c-.89-.31-1.81-1.66-2.31-2.39a14.06,14.06,0,0,1-1.64-3.43c-.21-.6-.23-1.61-.8-2s-1.83-.1-2.52-.12c.07,1.52,0,2.45.85,3.8a7.67,7.67,0,0,0,2.25,2.58c-.49.72-1.21,2-2.21,1.48s-2.1-2.56-2.64-3.67-.51-2.28-1-3.22-2-.79-3-.78c-2.25,0-5.43-.75-6.63,1.62a4.59,4.59,0,0,0-.76,2.39c.13.88,1,1.55,1.65,2.11,4.63,4.33,9.3,8.6,14.17,12.65,1.09.91,2,1.85,3.52,2,.65.07,1.34,0,2,0,1.91,0,5-.64,6.48.86.92.91,1.18,2.51,1.59,3.69.48,1.41,1,2.81,1.56,4.19a13,13,0,0,0,4.68,6.19c.58.4,1.14.81,1.71,1.23.3.22,1.42,1.28,1.71,1.25s.48-.36.74-.67l2.8-3.35c.28-.34.54-.69.83-1,.9-1,1.19-.69,2.15.09s2,1.35,2.86,2.1c.57.48,1.56,2.1.43,2.4-.85.23-2-1-2.71-1.45s-1-1.08-1.74-.61a9,9,0,0,0-2.51,2.85c-.51.77-.71,1.22,0,2s1.82,1.19,2.27,2.14c.76,1.59-1.09,1.74-2.08,1.12-.76-.48-1.45-1.5-2.29-1.85-.31-.14-.15-.17-.4-.12-.48.09-1.19,1.1-1.5,1.44s-2,2-1.88,2.63,1.84,1.46,2.28,2c.73.82,1,2.32-.54,2.21-1.07-.07-2.75-1.49-3.51-2.21-2.07-2,1.6-5.33,2.8-6.91.49-.64.57-.56,0-1.11s-1.27-1.14-1.92-1.69c-2.11-1.76-4.22-4-7-4.63a31.89,31.89,0,0,0-7.81-.24c-.53,0-1.17.16-1.57-.22A4.1,4.1,0,0,1,89.14,98c-.22-.79-.43-1.58-.65-2.37-.79-3-1.15-6.31-3.46-8.46-4-3.76-8.13-7.5-12.2-11.23l-1.26-1.16a10.81,10.81,0,0,0-2.23-2c-.62-.26-1.63.47-2.28.78-1.17.54-2.3,1-2.51,2.35a26.8,26.8,0,0,0-.12,3.35c0,1.33-.25,3.3.46,4.48s2.23,2,3.26,2.82,2.73,1.69,3.24,2.77c.63,1.33-1,1.73-1.87,2.28a16.27,16.27,0,0,0-3.12,2.86c-.67.74-2,1.86-1.68,3s2.36.89,3.34.9c1.53,0,3.08,0,4.61,0,1.2.06,2.48.08,2.81,1.42a20.49,20.49,0,0,1,.18,3.51c.07,1.18.69,2.76-.17,3.69a39.76,39.76,0,0,1-5.24,4.45c-1.08.83-2.23,1.58-3.36,2.35-1,.65-2.45,1.41-1.64,2.74a8.63,8.63,0,0,0,1.64,1.55c1,.88,2,1.76,3,2.65s2.41,1.82,2.92,3.09c.59,1.47-.82,2-2,1.26-2.05-1.34-3.64-3.42-5.59-4.91-1,1.65-.71,3.8-.68,5.66C64.54,127.21,65.28,131.44,63.19,131.44ZM61,100.36c-1.33,0-2.67.21-4,.33-1.06.1-2.85-.07-3.78.48s-.65,1.44-.56,2.28a9,9,0,0,0,.81,3.63c1,1.74,3.45,2.88,5,4.07,1.22.91,2.42,1.83,3.63,2.75,0-2.25,0-4.5,0-6.76,0-1.52.05-3,.05-4.57C62.24,101.55,62.31,100.36,61,100.36Zm5.33.23c-2.15,0-1.84,2.3-1.86,3.92a77.09,77.09,0,0,0,.43,7.89,46.84,46.84,0,0,0,4.57-3.08c1.31-1,2.86-1.8,3.49-3.4a5.73,5.73,0,0,0,.13-2.6c0-.74.47-1.68-.27-2.22s-2.35-.29-3.14-.34C68.56,100.69,67.44,100.59,66.32,100.59Zm-31.45-12A7.23,7.23,0,0,0,27.65,96c.09,2,1.6,3.63,3.15,4.75a6,6,0,0,0,4.83,1.33c3.65-.56,5.62-3.08,6.35-6.56.21-1,.58-1.74.14-2.76A5.68,5.68,0,0,0,41,91.05,8.6,8.6,0,0,0,34.87,88.62Zm54.64,1.2a15.24,15.24,0,0,0,.79,4.43c.35,1.07.65,2.78,1.89,3.12a20.75,20.75,0,0,0,4.25.2,13.92,13.92,0,0,0,3.29-.15l-.9-2.66c-.36-1.07-.72-2.15-1.1-3.21-.27-.77-.34-1.57-1.14-1.9-1.3-.53-3.33,0-4.7,0H89.51ZM61.94,87.2c-1.59.79-2.61,2.24-3.91,3.4l1.61,1.59c.37.37,1.42,1.84,2,1.94,1.46.27.69-5.95.62-7.06ZM65.16,87c-.4.78-1.28,5.74.24,5.33.5-.14,1.23-1.09,1.62-1.43l1.33-1.16-3.07-3Zm4.21-20.08c-1.16.1-3.55-.19-4.32,1-.42.63-.85,3.73-.14,4.21s2.87-1.29,3.31-1.76a4.85,4.85,0,0,0,1.37-3.43Zm-8.44.17c-.52,0-2.11.07-2.42.52s.18,1.28.35,1.67a5,5,0,0,0,3.42,2.58C62.38,70.38,63.21,67.08,60.93,67.08Zm.74-7.35c-2.45,0-3.37,4.12-3.8,5.84,1.26-.11,3.72.23,4.42-1.06C62.72,63.72,63.18,59.73,61.67,59.73Zm3.4,5.21h2c.59,0,2.17.3,2.68,0,.81-.47-.2-2.49-.69-3.06a5.25,5.25,0,0,0-4-1.73Zm0-12.06c-.25,1-.4,3.29.23,4.19s2.08,1.33,3,1.77c1.17.6,1.85.57,2.74-.44.37-.43,1.32-1.46,1.07-1.95s-1.26-.79-1.61-1l-2.41-1.51a13.75,13.75,0,0,0-1.92-1.21C65.59,52.51,65.69,52.53,65.08,52.88Zm-6.41-8.05,4.06,3.48V42.69c0-.35.18-1.22,0-1.52-.55-1-1.26.36-1.66.83Zm6.22,2.67c.62.21.52.27.93,0a8.27,8.27,0,0,0,1.25-1.67l2.3-3.08-4-2.44ZM37,37.78a20.44,20.44,0,0,0-2.71.18c.18.55.36,1.1.53,1.64.39,1.18.72,3.6,1.85,4.26s3.83.22,5.18.22c-.33-1.19-.67-2.38-1-3.57-.18-.64-.34-2-.89-2.46S37.76,37.78,37,37.78Zm56.63-7.93c-3.18,0-6.91,2.89-6.53,6.3a6.43,6.43,0,0,0,6.3,5.23c2.58-.13,7.1-1.77,6.9-5.05a9.14,9.14,0,0,0-2-4.22A6.1,6.1,0,0,0,93.67,29.85ZM65,18.91c.66.21.67.1,1-.43A29.07,29.07,0,0,0,67.74,16c1.07-1.88-1.23-3.71-2.76-4.57Z"/></g></g></svg>