<?xml version="1.0" encoding="utf-8"?>
<!-- Generator: Adobe Illustrator 24.2.3, SVG Export Plug-In . SVG Version: 6.00 Build 0)  -->
<svg version="1.1" id="ëÎÓÈ_1" xmlns="http://www.w3.org/2000/svg" xmlns:xlink="http://www.w3.org/1999/xlink" x="0px" y="0px"
	 viewBox="0 0 325.7 330.9" style="enable-background:new 0 0 325.7 330.9;" xml:space="preserve">
<style type="text/css">
	.st0{fill:#FFFFFF;}
</style>
<g>
	<path class="st0" d="M324.9,194.9c-0.8-0.2-0.4,1.1,0,1.2C325.3,196.2,325.7,195.1,324.9,194.9z"/>
	<path class="st0" d="M314.3,207.9c2.3-5.6-10.2,1.3-11.3,1c-0.8-0.3,1-2.1,0.1-2.4c-1-0.3-0.1-1,1.1,0.3c3.6,3.8,5.7-11.7,3.8-5.7
		c-0.4,1.1-4.1,2.6-4.5,0.6c-0.8-4.2,4.3-0.4,6.1-4.5c0.8-2,4-5.2,3.8-3.3c-0.1,1-3.1,4.2-1.6,3.8c1.3-0.3-0.8,5.2,1.5-1.3
		c4.3-12.5-1-2-2.2-2.2c-2.4-0.4-2.9-0.2-1.4-1.1c5.7-3.2-4.5-4-0.3-2.6c1.1,0.4,0.4,2.8-0.1,1.2c-0.2-0.9-0.3-0.9-0.7,0.1
		c-0.3,1-0.4,1-0.7,0.1c-0.3-1-1.1,0.9-1.4,0.8c-0.5-0.2,3-6.4,2.8-6.9c-0.5-1.2,0.6-3.3,2.4-2.2c3,1.6,1.1-3.8-1.8-1.8
		c-2,1.4-3.7,0.3-3.1,1.9c0.4,1-2.9,3.2-2.1,0.9c0.7-2.3,1.6,0.3,3.1-8.1c-5.1,1.4-2,0.9-0.4-3.3c0.5,1.4,1.3,2.6,1,3.7
		c-0.2,0.7,2-0.1,1-1.2c-0.6-0.7-0.6-15.1-0.5-15c1.2,0.4-0.6,1.7,0.2,1.9c0.3,0.1,2.7-3.9,3.1-2.4c0.4,1.3,0.5,1.3,1.6,0.5
		c1.1-0.8,1.2-0.8,0.8,0.4c-0.4,1.5,1.6,3.3,1.3-0.8c-0.6-8.1-1.4-0.1-2.6-2c-0.1-0.2-0.7-7.1-0.8-7.4c-3-7.4,4.4-2.1,0.8-1.2
		c-0.5,0.1-0.8,0.4-0.7,0.6c2,4.1,3-9.3,4.1-6.2c1.3,3.9,1.5-4.3,3.6-2.1c2.3,2.5-10.2-31.1-14.5-28.9c-1.7,0.9,1.7-1.3,0.1,3.6
		c-12-17.9,7-1.4,6.9-3.6c-0.1-3.2,2.2,0.5,0.6,3.2c-2.3,3.6,3.4,5.4,3.2,2.2c-0.1-2.2-3.6,0.5-2-2.8c1.2-2.6-3.5-8.4-2.2-5.1
		c0.6,1.4-0.4,2.1-2.1-1.3c-1.7-3.4,0.5-1.6,0.9-0.3c0.4,1.4,4.9-1.8-3.2-4.4c-3-1-6.9-9.1-7.2-8c-1.6,4.9-16.1-17.7-17.4-17.8
		c-2.7-0.2-8-6.7-4.3-4.5c2.9,1.8-3.4-6-2.9-6.7c0.6-0.8,2,2.5,2.6,2.2c0.5-0.3-2.1-4.7-2.9-3c-0.3,0.7-1,1-1.7,0.7
		c-1-0.3-2.5,4.5-1.8-0.9c0.8-6-1-3.4-4.6-6.5c-1.9-1.6-2.1,6.8-2.2-0.8c0-1-0.4-1.4-1.3-1.4c-1.1-0.1-1.2-0.2-0.4-1.4
		c1.7-2.7-4.4-5.4-1.4-2c2.8,3.3-3.8,0.7-5-2.9c-0.3-0.9-0.6-1.1-1.1-0.7c-0.5,0.4-0.9,0.3-1.3-0.3c-0.4-0.5,2.6,0.4,0.9-2.2
		c-3-4.7-6.4,0.5-5.8-1.8c0.9-3,4.1,1.7,3.1-2c-0.2-0.8-0.3-0.9-0.5-0.3c-0.2,0.6-0.4,0.6-0.9-0.2c-0.7-1.1-4,3.2-4.1,0.8
		c-0.2-4.8-12.9-11.9-5.9-4.8c-7.1-1.3-6.4,0.4-7.3,0.4c-1-0.1-17-7.6-16.9-6c0.1,0.9-3.2,1.5-4.7-0.3c-1.1-1.4-1.1-1.4-1.6,0.1
		c-0.5,1.5-0.5,1.5-3.3,0.2c-6.2-3,1,1.7,0.3,2.4c-2.9,2.5-9.5-2.8-8.6,0.9c0,0,4.1,0.5,2.4,0.6c-1.2,0.1-1.3,1,0,2
		c1.1,0.9,1,0.9-0.5,0.5c-1.4-0.4-1.6-0.3-1.8,1c-0.3,1.9-4,2.3-2.7,1.3c1.5-1.2-4.9-3.1-5.6-4.5c-0.8-1.5-0.4,3.4-3.2,0.5
		c-3.6-3.9-3.8,3-1,0.8c0.1-0.1,6.2,2.1,7.1,1.8c1.6-0.7,2,2.5-1.4,1.4c-1-0.3-1.8-0.3-1.9,0.1c-0.3,1.1-1.6-2.7-2.3-0.6
		c-0.3,0.8-1.6,0.5-2.1-0.5c-1-2.1-4.9,1.1-5.6-1.8c-2.7-11-3.6,4.8-3.9-2.1c-0.1-1.8-2.7-5-3.2-3.4c-0.5,1.6,2.3,2.1,2.5,2.9
		c0,0-2.8,0-3.5,2c-0.8,2.6,3.9-1.7,3.2,1.2c-0.6,2.4-3-0.6-3.6,1.1c-1.3,3.9-6.8-4.9-8.1-0.7c-0.4,1.2-1.3,1.1-1.4-0.1
		c0-0.4-4.1,6.2-2.4,2.5c0.9-2-6.3-3.9-5.3-2.6c1.7,2.3-7.7,2-7.3,1c0.5-1.7,4.7,0.8,5.5-1.6c0.9-2.6-9.8-4-6.4-0.4
		c0.8,0.9,0.5,3.6-0.9,2.1c-3.2-3.3-2.7,4-4.4,3.5c-0.7-0.2,0.8-2.2-0.6-2.7c-1-0.3-1.2,0.9-1.8,0.7c-0.9-0.3,1.1-2.4,2.5-1.5
		c3.4,2.3,2.3-9.5,0.9-5.1c-0.4,1.1,4.1,0.9-6.2,5.5c-3.2,1.4-0.7-1.2-1.9-1.6c-0.4-0.1-1.4,2.2-1.7,1.3c-0.4-1.4-8.7,1.9-6.8,3.1
		c2.9,1.9-3,2.8-4.4,1.1c-2-2.4-3.1,6.6-5.1,7.5c-2,0.9,4-6.4,0.2-5.3c-2.1,0.6-2,5.8-3.4,6.5c-1.7,0.8-2.6,0.8-1.8,0.1
		c0.3-0.3,0.3-0.5-0.1-0.6c-0.5-0.2-0.9-0.2-1.3-0.1c0,0,0-0.1,0-0.1c0.4-1.3-1-0.5-2-0.8c0,0-1.3,4-2.7,3.9
		c-1.6-0.1-2.6,2.3-2.8,1.4c-0.5-1.8-4-0.6-2.7-2.6c1.5-2.2-4.4,1.3-0.1,2.2c3,0.6-7,3.8-2.2,3.8c1.2,0,1.2,0.1,0.3,1.8
		c-1.4,2.5,4.7-0.2,3.9,2.1c-0.8,2.3-5.4,2.6-4.8,2.1c0.3-0.3,0.1-0.8-0.5-1.2c-2-1.2-7.7,7.2-4.9-0.7c3.2-9.1-7.7,5.4-6.4,1.2
		c0.2-0.7,0-0.9-1-0.7c-1.2,0.2-1.3,0.1-1-1.1c0.6-2.2-1.1,1.4-2.2,2.4c-1.3,1.1,4.1,0.1,4.2,1.8c0.1,1.9-3.3-0.1-3.7,1.3
		c-0.7,2.3-6.6,7-7.9,11c-0.7,2.1-3.4-0.6-2.1,2c0.4,0.9-5,11.1-5,11.1c-0.1-1.4-2.8-1.2-0.9-1.7c1.4-0.4-1-4.6-1.9-1.4
		c-1,3.6-4.9,11-2,6.2c3.9-6.6,2.2,1.5,1,0.1c-0.5-0.6-1,0.6-0.2,0.9c1,0.3-2,5.6-0.9,5.9c2,0.6-4.7,9.8-2.7,1
		c3.1-13.1-8.3,12.2-9.7,22.3c-0.7-0.2-0.5,0.8-0.1,1.2c-0.1,0.9,0,1.7,0.2,2.2c4.5,10.2-4.3,2.3-3.5,13.7c0.1,0.8,1.5-4,2-4.2
		c1.7-0.9-2.2,0.2,2.4,22.3c1.7,8.1-1.5-0.5-2.4,5.3c-0.2,1.1-0.3,1.3-0.5,0.6c-1.4-4.6-2.8,9.4,0.7,3.5c2.1-3.7-0.2,3.4-0.5,3.3
		c-2.4-0.8,1.1,6.2,0.7,7.3c-0.9,2.7,2-0.5,1.3,1.9c-0.4,1.5,1.1,9.8,2,7.2c0.4-1.1-1.6-14.2-2-13.1c0.8-2.3,3.5,6.5,4.4,3.7
		c0.3-1,0.5-1,1-0.2c2.1,3.3-4.5,0.7-2.9,7.1c0.6,2.6,1.5-1.2,2.4,0.2c0.9,1.4-1,3.5-0.1,2.5c2-2.1,0.3,4.5,3.1,3.4
		c0.8-0.3,0.9-0.2,0.4,0.6c-0.4,0.6-0.2,1.8,0.4,3c3.3,7.1-7.1-8-7-5.5c0,1.7-0.7,5.3,0.1,5.4c1.2,0.1,4.4,5.4,0.6,3.2
		c-1.7-1-3,0.5-3.6,0.3c-2.1-0.7,3.5-1.2,1-6c-1.8-3.6,1.1-2.2,0.9-3.3c-0.1-0.4-4.2-2-5.2-3.6c-0.8-1.4-1-1.5-1-0.7
		c0.1,3.6-1.2-2.3-3.7-2.3c-2.3,0-2.5-4.9-0.9-1.7c0.6,1.2,1.5,0.7,0.7-0.7c-1.4-2.8,0.1-0.9,0.6-1.6c1.3-1.7-3.3,1.1-2.7-3.2
		c0.6-4.6,1.9-0.2,2.6-1.2c0.5-0.7,1.5,5.5,1.7,5.6c3.2,1-2.1-11.4,0-14c0.7-0.8-0.1-1.2-1.3-0.6c-0.6,0.3-0.6,0-0.1-0.9
		c1.9-3.3-2.6-1.1-0.3-2.7c1.6-1-1.7-2.8-0.7-4.1c0.5-0.6,0.7-0.6,1.2,0.3c2.9,4.6-1.9-9-1.5-10.1c0-0.1,1.3,3.2,1.8-0.9
		c0.2-1.7-2.7-4-2.7-4c0.5-1.5,2.5,2.2,2.6,0.1c0.2-3.4-1.1-0.4-2.3-1.2c-1.9-1.2-1.2,17.9-2.8,3.4c-4.3-38.4,0.6,21.8,0.6,21.8
		c-1.1,0.3-3.5-1-2.4,1.9c0.6,1.5,1.2,1.6,1.9,0.3c0.9-1.4,3.1-0.7,2.6,0.9c-0.4,1.1-2.4,4.3-2.8,2.8c-1-3.6,0.2,8.8,1.3,9.2
		c0,0-1.3,5.9-0.5,7.2c3.2,5.3-0.3-0.7,0.7-3.6c1.6-4.4-0.9,5.5,2.9,5.7c1.2,0.1,2.2,2.5,2.9,4c-0.9-1-2.4-3.6-3.9-2.8
		c-2.6,1.3-0.9,1.4,1.2,4.9c-5.1-1.6-5.2-8.4-6.8-7.6c-1.7,0.8,4,9.6,4.4,8.6c0.5-1.3,3.2-0.8,4.8,0.9c3.8,4.1,0.8,1.4,2.8,1
		c1.5-0.4-2.4-0.8-2.4-1.9c0-1.1,3.6,0.1,3.5,2.4c-0.1,1.5-1,1.1-1,1.4c0.2,6.2,9.2,8.7,3.4,4.4c-2.5-1.8-0.4-5.7,1.3-3.6
		c1.2,1.4,1.3,1.4,1.4-0.2c0-0.9,0.3-1.1,0.8-0.7c1,0.8,0.8,8.4-1.9,2.6c-2.2-4.9-2.1,1.7,2.1,3.4c2,0.8,2.3-3.5,5.1,0.6
		c0.2,0.3-2.9-0.7-2.5,0.9c0.7,3,4.6-1.1,3.7,2.5c-1.2,4.8-6.2-5.3-7.1-2.4c-0.2,0.5,3.2,3.8,2.8,4c-1.3,0.8-1.7-3.6-3.1-1.8
		c-1,1.2,1.2,0.7,0.8,2.2c-0.4,1.2,4.9,6.5,0.4,4.2c-0.2-0.1-0.8,0.9-1.8,0.6c-1.1-0.4-3.2-0.3-2.5,1.1c0.9,1.7,1-5.7,7.7,7.4
		c6.1,11.9,1.5,2.3-3.3,0c-5.5-2.7,0.3,2.8,3.3,4.8c3.6,2.4-1.8,0.3-0.7,0.5c-17-3.7,26,22,26.3,23.6c0.2,0.9-3,2.2-3.4,1.4
		c-0.2-0.4-0.7-0.7-1.1-0.6c-1.4,0,1.4-1.1-3-4.1c-2.2-1.5-9.1-3-8.1-4.6c1.3-2-4-1.6-4-3.1c0-1.2-0.2-3.3-1.2-2.5
		c-1.1,0.9,0.6,1.7-0.5,1.9c0,0-1.3-1.1-2.3-1.4c-2.6-0.9-2.4,2.7-1.7,1.5c1.7-2.9,11.3,8.3,15.9,10.6c17.9,8.7,0.8,4.3,8,6.6
		c2.4,0.8,2.7,0.7,2.7-0.3c0-1.1,0.1-1.1,1.2-0.1c1.8,1.7-1.2,5.9,4.1,0.2c-1.4,2.5-1.4,4.9-0.2,7.1c-0.1-0.1-0.4-0.2-0.8-0.3
		c-2.1-0.7-0.6,1.4,0.5,0.9c0.3-0.1,0.4-0.3,0.4-0.4c0.2,0.3,0.4,0.6,0.6,0.9c-0.3,0.2-0.2,0.6,0.5,0.7
		c10.2,12.8,57.3,21.4,96.7,21.8c7.7,0.1,9.1-3.1,14-1.7c1,0.3,1.6,0.3,1.3,0.1c-3.2-2.7,12.9-2.8,13.7-4.8
		c0.2-0.4,15.5-7.3,12.3-2.3c-1.5,2.3,5.4-4.8,14.2-9.1c7.6-3.8,4.1-4.2,5.3-5.3c2.5-2.2-2.9,6-0.5,6.7c0.3,0.1,0.2,0.7-0.2,1.3
		c-0.7,1.1-0.7,1.1,0.4,0.4c1-0.7,2.2,0.1,2.5-0.4c0.8-1,1.7-0.6-1.2,3.8c-0.2-2.1-0.2-3.5-0.7-2.2c-0.2,0.4-8,1.5-9.2,5.3
		c-0.6,1.9,4.2-3.8,3.7-2c-0.8,2.9-18.9,15.7-16.1,16.7c1.6,0.6,7.9-4.8,8.5-4.6c2.1,0.7-6.8,10.6-4.6,8.1c3.4-3.8,7.7-4.9,3.3,0.5
		c-1.3,1.5,2.1,0.3,2.5-2.2c0.2-1.5,0.4-1.9,3.5-3.3c-3.8,4.4-2.4,4.9-2.7,5.4c-1.6,2.1,2.2-1.5,3.1-1.5c3,0,4.8-5.2,4.9-5.3
		c8.6-2-1.1,7.3,7.4-0.9c4.3-4.2,10.5-13.2,13.4-17.6c0.1,0.4,1.7,0.9,0.7,4.3c8-7.6-0.8-13.1-0.7-15.9c0.1-1.7-0.9,3.3-2.4,2.8
		c-1.7-0.6,3.1-8.3,2-8.6c-1.8-0.6-1.4,4.4-2.2,4.6c-0.4,0.1-1.4-1.4-1.5-1.1c-1,2.9-4.1-1.9-4,0c0.2,3-3.8-1.3,0.9-3.1
		c7.3-2.7,10.9-21,8.6-3.5c-0.3,2.4-0.3,2.5,0.7,1.8c0.9-0.7,1.1-0.7,0.8,0.1c-0.4,1.2,0.8,2.7,0.7,0.9c-0.5-7.6,1.4-1.7,2.6-5
		c1.6-4.7,0.5,4.2,0.1,5.3c-3.8,11.7,11.3-21.7,11.5-15.6c0,1.2,0.8,1.2,1-3.9c0.4-8.7,3.3-6.8,1.8-4.2c-0.7,1.3-0.6,6.5,1.2,0.5
		c1.8-6.2,4.3-6.7,2.8-6.3c-0.7,0.2-1.2-10.4,1.5-5.2c0.9,1.7,1.1-3,2.5-3.4c3.6-0.9-3-2.6-4.4-0.2c-1.1,1.8-3-2.9,3.7-4.1
		c4.2-0.8,2.7-3.4,5.7,1.9c1.4,2.5,15.6-6.9,18.1-14.6c0,0-9.1,6.2-9.2,6.2C306.2,214.3,311.7,214.3,314.3,207.9z M306.9,186.1
		c2.7-0.3-1,3.7-0.7,2.6C305,189.6,304.1,186.4,306.9,186.1z M304.1,104.9c1.9,2.8,0.5-5.2,1.3-0.7c0.7,3.6-1.1,3.4-0.7,2.3
		C303.5,105.2,303,103.3,304.1,104.9z M41,194c-0.4,1.1-1.9-4.5-0.2-1.7C41.8,194,41.8,194.3,41,194z M41.3,190.4
		c-0.4-0.1-0.7-1.5,0-1.2C42.1,189.4,41.7,190.5,41.3,190.4z M48.7,194.9c-0.2,0.5-0.4,0.8-0.5,0.8
		C46.6,195.2,49.3,193.1,48.7,194.9z M45.9,197.1c-2.4-2,0.4-6.7,0.7-2C46.8,197.2,45.6,198.2,45.9,197.1z M48.2,199.9
		c0.1,1,0.1,1.9,0.1,1.9l-0.2,0.1C44.7,200.8,47.9,194.9,48.2,199.9z M52.9,205.2c-0.1,0.3-0.6,0.6-1.2,0.6
		C49.4,205.9,53.4,203.5,52.9,205.2z M54.7,206.3c-0.9-0.8-0.7-2.2,0.5-0.8C56.6,207.3,54.3,207.4,54.7,206.3z M98.2,76.5
		c-2.8,1.4-2.3-1.4-3.3-1.2c-0.3,0.1,0.8-1.4,1.1-2.8C96.5,70.1,101.9,74.7,98.2,76.5z M95.8,69c0.7,0.2-0.5,1.7-0.9,1.6
		C94.5,70.5,95.1,68.8,95.8,69z M94.4,71.4c0.6,0.7,0.3,1.6-0.5,1.4C93.2,72.6,93.8,70.7,94.4,71.4z M89.4,71.9
		c0.8-1.1,0.1,1.7-0.8,1.9C86.2,74.5,88.7,72.9,89.4,71.9z M84.3,72.5c1.4-0.5,4-0.9,2.9-1.2c-2.5-0.8,3.8-2.1,0,1.1
		c-4.1,3.6-4.6,6.4-5.3,6.8C80.6,79.8,84.5,72.4,84.3,72.5z M84.5,81.2c-1.1,0.3-0.5,2.6-1.4,1.2c-1.2-1.9-1.7,4.4-2.3,2.4
		c-0.2-0.8-0.4-0.7-0.9,0.3c-0.5,1-0.6,0.9-0.2-0.6c0.7-2.5,6.7-7.8,6.4-6.6c-0.2,0.6-0.1,1.1,0.2,1.1c2.1,0.7-3.6,4.4-1.7,2.6
		C85.1,81.1,85.1,81,84.5,81.2z M85.3,93.6c-0.8,1-2.6,1.7-2.2,0.6c-3.1-2.5,2.2-6.1,1.2-2.9C83.9,92.4,88,89.9,85.3,93.6z
		 M85.5,210.9c-0.4-0.1-0.7-1.5,0-1.2C86.3,209.9,85.9,211.1,85.5,210.9z M82.6,177.6c2.8,4.6-0.6,3.1-0.2,1.9
		C80.6,178,81.2,175.4,82.6,177.6z M78.2,180.9c-0.9-1.4,4.8-2.1,1.5-0.5C79,180.8,78.3,181,78.2,180.9z M78.5,199
		c-0.2,0.5-0.4,0.8-0.5,0.8C76.3,199.3,79.1,197.1,78.5,199z M75.2,100.1c-0.6,1.8,3,2.3,2.4,4.1c-0.5,1.7-0.5,0.4-1.9-1.2
		c-1.1-1.2-1.1,0.7-1.5,0.6c-3.8-1.2,4.7-6.4,4.1-7.8c-1-2.4,4.2-6.1,2.2-1.8c-1.7,3.5,0.9,2.7-1.5,4c-2.1,1.2-1.3,1.2-0.3,1.8
		c4,2.5-2.8,2.7-1.9,0.7C77.1,100,75.4,99.5,75.2,100.1z M73.2,199.2c-3.7-1.9-2.3-5.2-3.2-2.9c-0.9,2.3-0.8-1.8-2.3-2.3
		c-1.2-0.4,1.1-3.5,1.4-0.4c0.2,1.8,0.2,1.8,0.8,0.7c2.9-5.7,8.7,12.8,4.4,7.7c-0.4-0.5-0.4-0.6,0.2-0.6
		C76,201.3,75.4,200.3,73.2,199.2z M62.7,222.8c0.8,0.2,0.4,1.4,0,1.2C62.2,223.8,61.9,222.5,62.7,222.8z M62.2,219.4
		c-0.2,0.1-0.5-0.2-0.8-0.7C60.5,217,63.2,218.9,62.2,219.4z M63,188.1c-0.6,0.5-2.2-2.7-1.8-2.7c2.1-0.2,3.1-1.2,2.6,0.9
		C63.6,187.1,63.3,187.9,63,188.1z M73.6,119.9c-0.4,1.1-1,2-0.6,0.9C72.9,119.7,74.3,117.6,73.6,119.9z M74.9,122.1
		c0.1,2-1,2.3-0.6,1.2C73.7,122.3,74.7,120.1,74.9,122.1z M74.1,157c0.8,0.2,0.4,1.4-0.4,1.1C73,157.8,73.3,156.7,74.1,157z
		 M73.5,142.5c0.8,3.8-0.9,3-0.5,1.9C72.4,142.9,72.9,139.7,73.5,142.5z M72.5,128.3c0.2-0.5,0.9-2.3,0.5-0.7
		C72.8,128.2,72.6,128.5,72.5,128.3z M72,98.3c-0.4,1.1-0.8-1.8,0.5-1.4C73.2,97.1,72.9,98.1,72,98.3z M71.9,131
		c-0.1,0.5-0.4,0.8-0.5,0.7C71.6,131.2,72.3,129.4,71.9,131z M71.8,110.4c0.1,2-0.8,3.4-0.4,2.3C70.6,112.4,71.6,106.2,71.8,110.4z
		 M71.9,121.6c-0.2,0.5-0.6,1-1,1.1C69.2,123.2,72.5,119.8,71.9,121.6z M71.5,166.9c-0.2,0.7-0.5,0.6-1.6-0.6
		C66.8,162.8,71.9,165.6,71.5,166.9z M68.2,150.3c-0.4,1.1-1,1.3-0.7,0.2C66.7,147.5,69,147.8,68.2,150.3z M67.4,122.2
		c-1.3,0.4-4,5.2,1.4-6.1C69.7,114.1,67.6,121.3,67.4,122.2z M65.9,136c-0.4,1.1-1,2-0.6,0.9C65.2,135.8,66.6,133.7,65.9,136z
		 M69.2,154.8c0.7,0.2,0.7,0.6-0.3,0.8C68.6,156.7,68,154.4,69.2,154.8z M69.8,189.2c-0.9,0.9-1.6,1.2-1.3,0.1
		C67.9,186.5,71.3,187.8,69.8,189.2z M70,187c-0.9,0.2-0.1-2.2,0.6-2C71.8,185.4,69.6,188.1,70,187z M69.6,157.4
		c-0.7-0.2-0.3-1.5,0.3-0.8C70.5,157.3,70.3,157.6,69.6,157.4z M70,110.8c-0.2,0.8-2.9,6.8-3.5,5.9c-1.1-1.6-4.6,3.2-2.4-3
		C66.9,105.7,70.7,107.6,70,110.8z M65.2,146c0.8,0.2,0.4,1.4-0.4,1.1C64.1,146.9,64.5,145.8,65.2,146z M64.2,128.3
		c1.2,0.4-1.6,5.1-1.2,3.6C62.4,131.3,63.4,128.1,64.2,128.3z M63.3,148.2c1,1.1-0.7,2.2-0.4,1.1C62.3,148.6,62.7,147.5,63.3,148.2z
		 M63.9,163.6c-0.1,2,0.1,2.1-0.8,1.3c-0.6-0.5-0.8-0.3-0.8,0.8c0,1.1-0.1,1.2-0.5,0.5C61.2,165.2,64,161,63.9,163.6z M61.3,151.6
		c-0.5,1.5-0.3-3.6,0.9-1.1C62.6,151.3,62.2,151.8,61.3,151.6z M64.3,155.6c-1.3-2.1,1.3-1,0.8,0.4C65,156.4,64.7,156.2,64.3,155.6z
		 M64.3,152.5c-2-0.6,2.3-2,1.1-0.5C65.1,152.4,64.6,152.6,64.3,152.5z M65.3,148.7c-0.2,0.3-0.5,0.5-0.6,0.5
		C65.2,148.7,66.3,147.4,65.3,148.7z M65.3,140.1c-0.6-0.7-0.2-1.8,0.4-1.1C66.6,140.1,64.9,141.2,65.3,140.1z M66.8,154.3
		c0.6,0.7,0.4,1.5-0.4,1.7C66,157.2,65.1,152.2,66.8,154.3z M67,157.8c0.8,0.2,0.4,1.4,0,1.2C66.5,158.9,66.2,157.5,67,157.8z
		 M73.9,191.1c-0.8-1.3-0.5-2.6,0.6-0.8C75.8,192.7,73.5,192.2,73.9,191.1z M73.4,117c-0.8-0.3,1.4-8.3,2-6.2
		C76,113.3,73,118.3,73.4,117z M73.2,95.7c0.2-0.5,0.9-2.3,0.5-0.7C73.5,95.6,73.3,95.8,73.2,95.7z M77.2,88.9
		c0.1-1.4,1.6-4.2,0.6-1.2C77.4,88.8,76.8,90,77.2,88.9z M79.3,90.2c0.2-0.5,0.9-2.3,0.5-0.7C79.6,90.1,79.4,90.4,79.3,90.2z
		 M80.7,202.5c1.1,0.4,0.7,1.5,0,1.2C80.3,204.9,79.3,202.1,80.7,202.5z M82.6,100.1c0.4,1.3,0.3,1.4-0.4,1.1
		C81.9,102.4,82,97.9,82.6,100.1z M82.6,94.5c1.4,0.4-1.2,2.9-0.9,1.8C79.6,96.4,82.4,94.5,82.6,94.5z M77,81.3
		c0.1-0.4,2.9-5.5,5.3-7C78.4,83.3,71.2,97.4,77,81.3z M74.4,85.4c-3.8,9.7,3.1,3.8-1,8.2c-3,3.2-0.9-0.9-2-1.9
		C69.8,90.5,72.6,87.2,74.4,85.4z M70.1,104.2c0.7,0.2,0.4,1.2-0.5,1.4C69.3,106.7,68.9,103.8,70.1,104.2z M64.2,106
		c1,0.3,1.1,0.2,2.3-4.1c1.2-4.2,1.8-1.7,2.7-4.4c1.6-4.8-0.7,6.6-1.4,3.9c-0.2-0.6-0.4-0.1-0.6,1.3C65.1,117,61.1,105,64.2,106z
		 M63.3,112c-0.8,2.1-2,4.7-1.2,2.4c0.5-2.9-3.1-3.1-4.1,2.1C56.5,123.3,53.5,110.2,63.3,112z M59.9,132.5c-1.4,1-0.5,8.6-1.3,4.5
		c-0.8,2.5,0.6-11.9,0.7-6.5c0,1.1,0.3,1.6,0.8,1.5C60.6,132,60.6,132.1,59.9,132.5z M60.3,128.9c-1.4-0.6-1.6-6.1-0.5-5.7
		C61.3,123.6,60.5,127.7,60.3,128.9z M59.9,118.5c0.9-0.2,0.5,1.1-0.3,0.8C58.9,119.1,58.9,118.7,59.9,118.5z M60.2,114
		c0.7,0.2,0.2,1.9-0.2,1.8C59.5,115.6,59.5,113.7,60.2,114z M59.7,120.9c-0.1,0.5-0.4,0.8-0.5,0.7C59.4,121.1,60.1,119.2,59.7,120.9
		z M57.6,161.1c2,3.6-0.1,4.1,0.2,3C56.7,163.7,54.9,156.2,57.6,161.1z M56.4,153.5c-0.9,0.5-1.2,0.5-1.6,0
		C55.6,153.7,59,152.2,56.4,153.5z M55.8,112.7c-0.1-1.1,1.3-3.2,0.6-0.9C56,112.9,55.4,113.8,55.8,112.7z M54.8,118.6
		c0,0.3-0.3,0.4-0.6,0.3C53.6,120.5,56.3,106.3,54.8,118.6z M54.7,122.9c-0.4,1.1-1.2,1.9-0.9,0.8C53.1,120.8,55.9,119.5,54.7,122.9
		z M50.5,178.2c-1.1-1.9-1.9,0.6-1.2-1.4C50.6,173.3,51.7,180.3,50.5,178.2z M50.5,170.4c-0.6-0.2,0.1-2.7,0.9-1.5
		C52.2,170.2,50.1,171.5,50.5,170.4z M49.8,143.8c0.2,1.3,0.5,6.7,1.6,7C53.6,151.6,47.3,157.2,49.8,143.8z M52.4,176.8
		c-0.4,1.1,0.4-1.1-0.1-2.5C51,171.1,55.2,179,52.4,176.8z M52.7,140.7c-0.4,1.1-1.4-1.7,0-1.2C53.9,139.8,53.5,141,52.7,140.7z
		 M53.7,133.7c-0.1,0.3-0.4,0.2-0.8-0.4C51.6,131.2,54.2,132.3,53.7,133.7z M53.7,125.8c0.4-0.4,0.6,3.8,0.9,2.9
		c1-2.6,1.3,2.5-0.2,2C54.1,131.8,51.9,127.5,53.7,125.8z M54.2,145.5c-0.7-2.6,1.7-4.3,0.7-0.9C54.6,145.7,53.8,146.6,54.2,145.5z
		 M55.5,147.5c0.7,0.8,0.4,1.1-0.5,0.4C54,147.1,54.8,146.7,55.5,147.5z M55.2,171.9c-1.4-2.2,0.6-1.4,1.4-0.1
		C57.7,173.5,54.9,173,55.2,171.9z M57.3,187.5c-0.3,0.4-0.6,0.5-0.8,0.4C54.9,187.2,58.2,186.3,57.3,187.5z M57.5,182.6
		c1.1,0.4,2.6,4.4,0.9,3C58,186.7,56.4,182.3,57.5,182.6z M59.3,177.6c0.7,0.2,0.7,0.6-0.3,0.8C58.7,179.6,58.1,177.2,59.3,177.6z
		 M59.2,210.4c-0.2,0.6-0.4,1-0.6,1.1C58.9,210.8,60,208.1,59.2,210.4z M59.1,190.3c-0.5-1.4-1.5-3.2-0.2-3.5
		C61.6,186.1,59.2,188.7,59.1,190.3z M58.2,151.1c-1.1,0.8-1.9,0-0.8-0.9c3.4-2.9-0.4-3.8,1-8c1-3,2.4,15.6,2.3,15.9
		c-0.1,0.2-1.4,0.2-1.1,1.5c0.4,2.2,2.4,1.2,1.3,2.6C58.1,165.7,60.5,149.5,58.2,151.1z M59,222.8c0.7,0.2,0.7,0.6-0.3,0.8
		C58.3,224.7,57.7,222.4,59,222.8z M55.9,225.1c0.7-3.6,5.9,6,7.9,9.1C61.6,232.2,55.3,228.2,55.9,225.1z M61.3,240.3
		c-0.7-0.2-0.2-2,0.8-1.2C63.2,240,60.9,241.4,61.3,240.3z M67.2,187.1c-1.1,1.5,1.6,3.1-1.5,2.3C62.3,188.7,68,186.1,67.2,187.1z
		 M68.5,245.6c-2.7-2.1-3.5-4.8,0.4-1C72.9,248.5,68.1,246.7,68.5,245.6z M71.5,237.7c0.7,0.8,0.4,1.1-0.5,0.4
		C70,237.3,70.8,236.9,71.5,237.7z M74.6,250.6c-4.8-2.6-3.9-4.6-0.3-1.5C77.3,251.7,74.2,251.7,74.6,250.6z M75.3,237.4
		c-0.7-0.2,0.5-1.7,0.9-1.6C76.6,236,76,237.6,75.3,237.4z M75.7,167c-0.5-0.6-0.2-1.6,0.4-1.3C77.2,166,75.3,168.1,75.7,167z
		 M76.1,164.4c-0.7-0.2,0.5-1.7,0.9-1.6C77.3,163,76.7,164.6,76.1,164.4z M77.1,113.3c-0.7-2.5,1.3-2.2,0.7-0.2
		C77.5,114.1,76.8,114.4,77.1,113.3z M78.8,210.1c-2.8-1.3-1.6-3.2,0.8-1.6C82.9,210.7,78.5,211.2,78.8,210.1z M80.7,213.1
		c-0.7-0.2-0.1-2.3,0.8-2.5C83,210.2,80.4,214.2,80.7,213.1z M82.9,204.5c0.8,0.2,0.4,1.4-0.7,1C81.1,205.1,82.2,204.3,82.9,204.5z
		 M86.5,216.2c-1.2,3.7-5.8-1.3-3.7-3.4c3.3-3.2-0.7,3.5,1.8,2.2C85.9,214.4,86.9,215,86.5,216.2z M86.1,87.3
		c-0.4,1.3-0.4-2.8,0.5-1.7C87.3,86.3,87,87.1,86.1,87.3z M83.2,88c-0.8-1.3-5.1,0.4,4.3-6.4C82.7,88.8,84,89.2,83.2,88z M90.3,80.3
		c0.7,0.2,0.7,0.6-0.3,0.8C89.7,82.2,89.1,79.9,90.3,80.3z M93.3,78.4c-0.1,0.5-0.4,0.8-0.5,0.7C93,78.6,93.8,76.8,93.3,78.4z
		 M93.1,74.4C92,74,91.5,75.7,92.3,76c2.1,0.7-3.9,4.2-2.3,2.1c3.4-4.3-0.8-2.1-1.6,0.2c-0.4,1.1-3.6,0.4-0.2-1.5
		c0.8-0.5,4.4-4.3,5.2-3.7C94.5,73.8,94.2,74.7,93.1,74.4z M94.6,269.7c-0.8-0.2-0.4-1.4,0.4-1.1C95.7,268.9,95.4,270,94.6,269.7z
		 M97,78.7c1.1-0.8,0.8,0.2-0.4,1.1C96.3,81,95.2,80.2,97,78.7z M97.8,277.4c-0.5,1.6-3.2-3.6,0-1.4
		C98.8,276.7,103.8,278.6,97.8,277.4z M101.2,73.3c-0.7-0.2-0.2-1.8,0.6-2C103.4,71,100.9,74.4,101.2,73.3z M104.7,63.9
		c-0.3-0.1-0.2-2.6,0.3-2C105.9,62.9,104.3,65,104.7,63.9z M107.3,62c-0.4,1.1-1.6-0.3,0.1-0.9C108.9,60.5,108.3,61.7,107.3,62z
		 M111.1,63.8c-0.5,0.3-1.1,0.4-1.2,0.2C109.4,62.9,113.2,62.5,111.1,63.8z M117.2,56.8c-0.1,2.6-1.2,2.7-0.8,1.6
		C115.9,57.5,117.3,53.7,117.2,56.8z M118.7,57.8c-0.7-0.2-0.7-0.6,0.3-0.8C119.8,56.8,119.4,58.1,118.7,57.8z M122.3,64.8
		c-0.2,0.3-0.5,0.5-0.6,0.5C122.2,64.8,123.3,63.5,122.3,64.8z M122.4,49.2c-0.4,1.1-0.7-1.5,0.7-1
		C123.8,48.4,123.6,48.7,122.4,49.2z M127.1,50.9c-0.3,1-1.6-1,0.2-1.8C129.2,48.2,126.8,52,127.1,50.9z M132.3,47.4
		c-1.1-0.4,0-1.3,0.7-1C133.7,46.6,133.4,47.7,132.3,47.4z M136.4,47.2c-0.4,1.1-1.7,0.6-0.9,0c1.8-1.6-2.4-1.8-3.5-2.1
		c-1.3-0.4-1.2,1.8-3.1,1.2c-9.5-3.1,17.2-3.1,10.7,0.2C139.4,47,136.7,46.2,136.4,47.2z M140.4,51c-0.2,0.7-0.7,1.2-1,1.1
		C139.8,51.4,141.3,48.2,140.4,51z M146.2,43.9c-0.2,0.7-0.6,1-1,0.7C142.9,42.9,147.1,41,146.2,43.9z M158.8,43.1
		c-0.3,0.8-0.7,1.4-1,1.3C158.2,43.7,159.8,40.2,158.8,43.1z M210.8,87.7c-0.4,1.1-1.2-2.5,0.1-1.4C211.7,87,211.6,88,210.8,87.7z
		 M212.3,106.4c-1.9,0.5,0-3.3,0.9-3C214.3,103.8,211.9,107.5,212.3,106.4z M214.3,43.6c-0.4-0.1-0.7-1.5,0-1.2
		C215,42.6,214.7,43.7,214.3,43.6z M215.3,57.5c-0.4-0.1-0.7-1.5,0-1.2C216.1,56.6,215.7,57.7,215.3,57.5z M215,41.3
		c-0.8-0.3-1.4-1.6-0.8-1.9C215.4,38.8,217,42,215,41.3z M217.7,42.5c-1.8-1.1-1.2-1.5,0.7-0.3C220.2,43.3,219.5,43.6,217.7,42.5z
		 M230.6,60.9c-0.2,0.5-0.4,0.8-0.5,0.8C228.5,61.2,231.2,59.1,230.6,60.9z M243.9,297.5c-0.4,1.1-1.1,1.7-0.8,0.6
		C242.8,297,245,294.1,243.9,297.5z M239.3,301.2c-1.1-0.4-3.7,2-2.9,0.8c1.5-2.3-1.3-3,1.4-5.9c3.7-4.1,4.8-2.2,6.5-4
		C247.5,288.7,239.3,301.2,239.3,301.2z M244.2,289.7c-0.4,1.1-2.3,1.4,0.4-1.1C246.2,287.1,245.9,288.2,244.2,289.7z M247.9,287.6
		c-0.5,0.7-0.6,0.6-0.8-0.4C246.5,284.8,249,286.2,247.9,287.6z M250.7,70c-0.4-0.4,0.5-4.7,0.7-2.3C251.6,70,250.3,71.1,250.7,70z
		 M251.9,272.7c-0.4,1.1-0.8-1.8,0.5-1.4C253.1,271.5,252.8,272.5,251.9,272.7z M267.8,281.3c-0.9,0.4-1.4,0.6-1.6,0.8
		c0.8-1.3,1.3-2.1,1.4-2.2C268.2,277.8,270.6,280,267.8,281.3z M266.4,275.8c-0.3,0.8-0.1,1.1,0.5,1c1.6-0.3-1.9,1.5-1.4-0.1
		C264.8,273.9,267,273.9,266.4,275.8z M305.1,203.9c0,0.8,2.3,1.2,0.2,1.7c-0.4,1.1,0.1-1-1.4-0.9
		C301.9,204.8,305.1,203.3,305.1,203.9z M304.2,176.6c-0.2,0.5-0.4,0.8-0.5,0.8C302,176.9,304.8,174.8,304.2,176.6z M305.7,144.7
		c2,1.6-0.6,3.5-0.4,6C306.9,168.8,298.5,139.1,305.7,144.7z M302.8,159.8c1.3,0.4-0.8,2.5-0.5,1.4
		C301.7,160.5,302.1,159.5,302.8,159.8z M306.7,150.3c-1.3-2.6,1.6-1.6,0.9,0.4C307.3,151.5,307.3,151.5,306.7,150.3z M309.1,160
		c-2.7-0.9-1.5-9.2-0.9-3.4c0.3,2.5,0.4,2.8,1.2,1.9C311.4,156.3,308.8,161.1,309.1,160z M314,138c-0.4-0.1-1.3-2.3-0.1-1.9
		C315.5,136.6,313.6,139.1,314,138z M309.1,120c-0.4,6.5-0.6-1.8-1.7-2.2C305.1,117.1,309.4,114.1,309.1,120z M305.2,130.5
		c0.5-0.7,0.6-4.5,1-4.4c1.1,0.4-1.1,8.6,2,4.6c0.7-0.9,3.6,2.9,1-2.3c-1.4-2.7-0.7-2.8,0.7-5c0.2,1.5,1,6.9,2.7,6.8
		c2.7-0.1,1.8,5,0.2,4c-3.8-2.5,1.3,20.2-2.9,6.1c-4.4-14.7-5,6.4-3.3-1.2c2.3-10.3,5.6,18.1,3.3,17.8c-0.8,2.5-0.5-7.7-1.9-10.5
		c-4.2-8.6-5.8-1.1-2.3-13.1C306.2,131.9,304.3,131.7,305.2,130.5z M303.3,136.6c-0.4,0.8-0.7,1.5-0.9,2c-0.2-0.9-0.9-2-2.3-3
		c-1.3-1,0.2-2.5,1.8-3c-0.1-0.1-0.4-0.3-0.6-0.6c-2.3-2.4-0.2-2.9,0.6-0.6c0.2,0.6,0.3,1,0.3,1.2
		C303.8,132.1,305.2,132.9,303.3,136.6z M298,125.1c0.6,1.2,3.3,2.5,2.2,3.4c-0.2,0.2-1-0.2-1.8-1C298,128.7,298,126.5,298,125.1z
		 M303.1,118.7c-0.2,0.8-0.6,1.1-0.9,0.9C302.6,118.9,304.3,115,303.1,118.7z M301.5,111.3c-0.8-1.6-0.5-2.1,0.3-0.9
		C303.1,112.5,301.1,112.4,301.5,111.3z M301.2,106.5c-1-1.5-0.4-2,0.5-1.7C303.5,105.4,300.7,107.9,301.2,106.5z M300.5,101
		c3.8,2.6,0.9,4.2,1.3,3.1C300.6,103.8,298.4,99.6,300.5,101z M301,114.6c-0.8,0.7,1.6,2.6-0.7,1.2C297.1,113.7,302,113.7,301,114.6
		z M298.8,111C296.3,100.3,300.3,116.9,298.8,111L298.8,111z M299.1,161.8c0.2,0.7,0.4,0.6,0.7-0.3c0.6-1.8,1.3-1.3,1.6,1.1
		c0.6,4.1-2.2,3.8-1.8,2.7C295.9,163.2,298.8,160.4,299.1,161.8z M299.1,166.6c0.9-0.8,1.5,1.9,0.8,2.5c-0.4,0.3-0.5,0.1-0.4-0.5
		C299.7,167.2,298.4,167.1,299.1,166.6z M298.1,181.9c0.6-0.2,0.7-0.4,0.3-0.8c-1.8-2.2,2.8-2.7,1.8-4.9c-0.8-1.8,1.1-4.3,2.5-2.8
		c2.3,2.3-2.9,2.2-0.6,2.9c1.3,0.4-3.2,7.6-4.4,6.3C297.5,182.3,297.6,182,298.1,181.9z M302.2,184.5c1.6,0-1.3,2.4-1,1.3
		C300.1,185.9,301.1,184.5,302.2,184.5z M296.9,95.9c1.4,1.5-0.7,4.8-0.2,3.2C295.6,98.1,294.9,93.7,296.9,95.9z M294.4,121.9
		c1,0.8,0,1.6-1.1,0.8c-0.8-0.5-0.8-0.5-0.2,0.3c0.8,1.1-3.2,4.1-2.3,0.5c0.3-1.4-0.8-2.4-0.6-3.1c0.2-0.7,1.2,0.2,1.6-1.1
		c0.5-1.6,1,0.7,1.5,0.4c0.8-0.4-1.7-5.9-1-5.3c0.5,0.4,1,0.4,1.1-0.1c0.1-0.4,0.4-0.2,0.7,0.6c1.1,3.3,1.8-4.6,2.8-0.5
		c0.2,0.7-1.5,1.4-1.4,1.5c2.9,3.6,0.8,7.2,1.2,5.9C296.1,120.3,291.8,119.9,294.4,121.9z M295.2,127.7c-0.3,0.9-0.5,0.9-1.2-0.1
		C291.5,124.7,296.2,124.5,295.2,127.7z M288.6,127.2c0.3-0.9,1.5,1.1,1.1,2.2c-0.4,1.1-0.6,0.9-0.3-0.2
		C289.4,128.2,288.4,127.7,288.6,127.2z M288.5,121.3c-0.6,3,0.9,2.3,0.9,2.3c-2.4,3.9-3.1-9.6-1.6-5c0.3,0.9,1.6-2.7,0.8-3.3
		c-0.3-0.3-0.1-0.4,0.5-0.2c1.6,0.5,2.6,1.7,1.5,2c-1.4,0.4,0.7,0.9-0.4,2.2C289.1,120.6,289,118.5,288.5,121.3z M288.1,189.9
		c-0.4,1.1-1.2,1-0.9-0.1C286,186.3,289.4,185.7,288.1,189.9z M292.3,112.9c-0.9-1.5,1.8-2,2-1c0.9,3.5-1.5-1.3-1.5,0.8
		C292.8,113.7,292.8,113.8,292.3,112.9z M296.4,110.5c1.7,1.8-0.1,3.1,0.2,2C296.1,112.3,294.9,109,296.4,110.5z M296.5,165.1
		c-0.2,0.1-0.6-0.2-0.9-0.7C294.8,162.8,296.8,164.9,296.5,165.1z M296,129.5c-0.4,1.1-0.6-1.9,1.1-1.4
		C297.8,128.4,296.9,129.5,296,129.5z M289.3,90.3c-0.1,0.3-0.4,0.4-0.7,0.3C285.9,89.8,290.2,87.6,289.3,90.3z M271.2,82.4
		c0-2.6,5.6,3.5,3.7,3.9c-0.6,0.1-1,0.7-1.1,1.4c-0.6,1.7-3.1-0.6-2.4-1.9c0.7-1.4-4.8-4.7-2.7-4.6
		C271.2,81.3,271.2,84.5,271.2,82.4z M272.1,125.1c1.3,0.5-2,0.5-1.7-0.6C269,122.7,270.6,124.4,272.1,125.1z M269.3,85
		c-1.3-1.4-0.3-1.7,0.5-0.4C270.7,86,270.5,86.2,269.3,85z M270.4,62.7c0.7,0.8,0.4,1.1-0.5,0.4C268.9,62.3,269.7,61.9,270.4,62.7z
		 M269.1,79.1c1,0.8,0.6,1.7-0.4,1.3C268.3,81.5,267.5,77.9,269.1,79.1z M268.5,88.5c1.2-0.5,1.2,0.2,0,1.2
		C268.2,90.8,266.8,89.2,268.5,88.5z M268.4,101.8c0,3.3,0.4,3.5-0.6,3.2C267.5,106.1,267.5,104.1,268.4,101.8z M264.2,75.7
		c5.4,3.9,0.9,5,1.2,3.9C263.2,79.5,262.5,74.4,264.2,75.7z M265,87.8c-0.4,1.1,0.3-3.9,1.1-0.7C266.5,88.3,266,88.5,265,87.8z
		 M257.3,86c-1,0.8-0.9-6.3,0.5-2.4C258.4,85.3,256.9,87.1,257.3,86z M259,210.4c-0.1,0.5-0.4,0.8-0.5,0.7
		C258.7,210.6,259.5,208.7,259,210.4z M259.7,84.2c-0.4,0-0.9-0.3-1.2-0.8C257.6,81.6,261.6,84.2,259.7,84.2z M263.1,85.2
		c0.6,0.8,0.4,1-0.6,0.7C261.4,85.5,262.5,84.5,263.1,85.2z M265.8,221.9c-0.1,0.5-0.4,0.8-0.5,0.7
		C265.5,222.1,266.3,220.3,265.8,221.9z M266.8,207.1c-0.5,8.8-9-3.7-1.6-13.5c1.2-1.6-0.1,2.5-0.1,2.5c3.1,1.1,0.4-2.4,1.8-3.1
		c2-1-0.2,7.7,2.2,5.7c1.8-1.6-1.2,4.5,0,3.7c2.9-2.1-1,7.3-0.2,4.8C268,207.8,267,203.7,266.8,207.1z M268.4,211.9
		c-0.2,0.8-0.5,1-0.5,0.6C268,212.3,269.1,209.8,268.4,211.9z M271.8,209.3c-0.1,0.3-0.7,0.5-1.4,0.5
		C264.6,209.7,272.7,206.7,271.8,209.3z M271.9,253.2c-1.1-1.3-1.1-2.1,0.5-1.5C274.9,252.5,271.4,254.7,271.9,253.2z M273.4,105.8
		c-1-0.8-0.2-1.2,0.5-0.4C274.6,106.3,274.3,106.5,273.4,105.8z M277.4,88.9c-0.1,0.3-0.4,0.4-0.6,0c-0.6-0.7-1,0.6-0.2,0.9
		c2,0.7-2.8,0.7-2.1-1.6C274.7,87.7,277.9,87.3,277.4,88.9z M277.6,117.9c0.2-0.5,0.9-2.3,0.5-0.7
		C277.9,117.8,277.7,118.1,277.6,117.9z M278.5,254c-0.4,1.1-0.9-1.2,0.3-0.8C279.4,253.4,279.4,253.8,278.5,254z M278.7,109.8
		c0.8,0.2,0.4,1.4,0,1.2C278.2,110.9,277.9,109.5,278.7,109.8z M278.6,94.8c-0.7-0.2-0.3-1.5,0.3-0.8
		C279.5,94.7,279.3,95.1,278.6,94.8z M279.3,92.9c-0.4,1.1-1.3-1.9,0.1-1.5C280.3,91.7,280.2,92.6,279.3,92.9z M280.9,122
		c-0.4,1.1-0.9-1.2,0.3-0.8C281.9,121.4,281.9,121.8,280.9,122z M281.6,97.4c-0.4-0.7,0.6-0.9,1.2-0.2
		C283.7,98.2,281.9,98,281.6,97.4z M282.7,244.7c-0.1,0.2-0.3,0.3-0.6,0.2C281.5,246.6,284.3,237.4,282.7,244.7z M283.7,114.5
		c-0.4-0.1-0.7-1.5,0-1.2C284.5,113.5,284.1,114.6,283.7,114.5z M281.7,91.1c0.1-0.2,0.1-0.3,0.1-0.5c0.5,0.3,1.1,0.6,1.9,0.9
		c1.1,0.4,4.5,5.9,2.6,1.3c-1.6-3.7,1.8,0.9,1.5,2c-0.3,1.1,3.3,1.3,1-1.1c-4.7-4.8,7.3,3.3,4.1,3.6c-0.7,0.1-1.8,4.1-0.3,2.3
		c0.7-0.9,0.8-0.8,0.9,0.6c0.1,1.6,0.1,1.6,0.6,0.3c1.3-3.7,1,4.5,1.8,5.9c1,1.6,1,2.1-0.6,1.7C295,109.3,281.1,92.7,281.7,91.1z
		 M287.6,197.3c-2.3,0.6,0.3-3,0.9-1.3c0.9,2.6,2.4-0.8,3.8-1.3c1.1-0.4-0.8-2.3-0.5-3.1c0.3-1,1.7,1.1,1.6-0.4
		c-0.2-3.5,3.6,3.7,0,3.8c-0.4,1.1-5.1,6.6-6.4,6.2C285.6,200.8,288.9,197,287.6,197.3z M287.9,234.1c-0.4,1.1-1,2-0.6,0.9
		C287.2,233.9,288.6,231.8,287.9,234.1z M287.2,208.1c-0.2,0.1,1.8-2.8,0.8-2.6c-1.4,0.3,0.6-4.3,1.1-0.4
		C289.4,206.7,286.9,209.2,287.2,208.1z M290.1,204.1c-0.3-0.1-1.2-3.7-0.2-2C291.1,203.9,289.7,205.2,290.1,204.1z M291.2,210
		c-0.4-0.1-0.7-1.5,0-1.2C292,209,291.6,210.1,291.2,210z M290.5,207.3c-1.3,1,0.7-2.9,1.2-3.1C293.2,203.4,290.1,208.4,290.5,207.3
		z M293.1,203.6c-0.4-0.7,0.6-0.9,1.2-0.2C295.2,204.4,293.4,204.1,293.1,203.6z M295.4,213.2c-0.7-0.2-0.7-0.6,0.3-0.8
		C296.6,212.2,296.1,213.5,295.4,213.2z M295.6,190.7c-0.6-1.2-0.7-2,0.4-1.1C297.5,190.9,295.2,191.9,295.6,190.7z M297.7,205.3
		c-0.4-0.1-0.7-1.5,0-1.2C298.5,204.3,298.1,205.4,297.7,205.3z M298.2,187.4c1.7-1.1,1.8-0.2,0.2,1.3
		C298,189.9,294.3,190,298.2,187.4z M300,224c-0.7-0.2-0.7-0.6,0.3-0.8C301.1,223,300.7,224.3,300,224z M300.6,195.4
		c-0.4,1.1-0.9-1.2,0.3-0.8C301.5,194.7,301.5,195.1,300.6,195.4z M302.2,213.5c-0.7,2.3-1.2-2.8,0.8-2.2
		C303.6,211.5,303.2,212.7,302.2,213.5z"/>
	<path class="st0" d="M302.2,132.5c-0.1,0-0.2,0-0.3,0.1C302.1,132.8,302.2,132.8,302.2,132.5z"/>
	<path class="st0" d="M325.4,182c-0.4,1.1-1.7,0.8-0.6,2C325.3,184.7,326.1,182.3,325.4,182z"/>
	<path class="st0" d="M317.5,207.4c-0.4-0.1-1.5,1.4-0.9,1.6C317.8,209.3,317.2,208.5,317.5,207.4z"/>
	<path class="st0" d="M310,221.7c-0.8-0.2-1.1,0.9-0.4,1.1C310.4,223.1,310.8,222,310,221.7z"/>
	<path class="st0" d="M319.2,180c0.1-0.4,0.1-0.5-0.1-0.3C319.2,179.8,319.2,179.9,319.2,180z"/>
	<path class="st0" d="M319.3,168.3c-1.5-3-0.7,0.9-0.5,4.2c0.3,4-1-3.3-1.7-2.9c-0.7,0.3-0.1,4.1,0.6,4.3c0.8,0.3,0,3-1.2,4.2
		c-1.5,1.4,1.4,4.5-0.4,3.2c-1.1-0.8-0.8,0.3-1.4,2.8c-0.8,3.3,3.4-3.6,4.3-4.4c-0.2-0.2-0.8-0.2-0.8-0.2
		C317.6,179.6,320.7,170.9,319.3,168.3z"/>
	<path class="st0" d="M315,188.1c1.4,2,0.6,1.4,1,0.3C315.9,186.5,312.5,184.6,315,188.1z"/>
	<path class="st0" d="M320.2,165.4c-0.8-0.2-1.1,0.9-0.4,1.1C320.6,166.8,321,165.7,320.2,165.4z"/>
	<path class="st0" d="M311.6,190c0.8,0.2,1.1-0.9,0.4-1.1C311.2,188.6,310.9,189.7,311.6,190z"/>
	<path class="st0" d="M299.1,227.3c-0.7,0.9-0.2,1.9,0.2,0.4C299.6,226.6,299.1,227.3,299.1,227.3z"/>
	<path class="st0" d="M320.9,157.6c-0.4-1.4-0.8,0.2-0.3,0.9C321.5,159.5,320.5,158.7,320.9,157.6z"/>
	<path class="st0" d="M322.2,151.2c-0.1,1.4,0.3,1.7,0.6,0.5C323.2,150.6,322.3,149.6,322.2,151.2z"/>
	<path class="st0" d="M316.9,161.1c-1,1.3,0.3-0.2,0.9,1.5c0.9,2.8,0.2-0.8,0.6-2C316.9,154.4,317.8,159.9,316.9,161.1z"/>
	<path class="st0" d="M310.9,186.3c-0.6-0.7-1.3,1.3-0.4,1.1C311.5,187.2,311.5,187,310.9,186.3z"/>
	<path class="st0" d="M320.8,154.1c0.6,0.7,1-0.4,0.4-1.1C320.5,152.3,320.2,153.4,320.8,154.1z"/>
	<path class="st0" d="M312.4,179.1c0.4,0.1,0.9-1.6,0.2-1.8C312,177.1,312,178.9,312.4,179.1z"/>
	<path class="st0" d="M313.1,169.5c-0.9,3.4-1.1,3.4-1.2-0.4c0-2.8-1.9-1.4-0.9-0.2c0.9,1,2.7,12.3,3.4,0.4
		C314.6,165.5,314.2,165.6,313.1,169.5z"/>
	<path class="st0" d="M295.2,229.4c-1.6,0-0.7,1.9,0.3,0.6C295.7,229.7,295.6,229.4,295.2,229.4z"/>
	<path class="st0" d="M321.5,146c0.5,1.9,0.2-0.6,0.5-1.7C321.6,142.6,321.2,144.9,321.5,146z"/>
	<path class="st0" d="M293.1,233.6c-0.4,1.1-1.9,2.8-0.6,1.7C293.6,234.4,293.8,233.8,293.1,233.6z"/>
	<path class="st0" d="M311,176.7c1.1,0.4,0.5-0.5,0.9-1.6C311.5,175,310.3,176.5,311,176.7z"/>
	<path class="st0" d="M318,149.6C318.2,150,318.4,150.1,318,149.6L318,149.6z"/>
	<path class="st0" d="M315.7,152.8c0.3,0.1,1.7-3.9,2.2-3.4c0.1,0.1,0.1,0.1,0.1,0.1c-0.1-0.2-0.2-0.6,0-1
		C317.1,147.2,313.7,152.1,315.7,152.8z"/>
	<path class="st0" d="M312,166.2c1.5-0.4,0.7-2.3,1-3.4C312.2,161.8,310,166.6,312,166.2z"/>
	<path class="st0" d="M320.5,135.2c-0.6-3.3-2,0.7-0.6,1.8C321.3,138.2,320.1,136.3,320.5,135.2z"/>
	<path class="st0" d="M313.6,153.4c0.8,0.2,1.1-0.9,0.4-1.1C313.2,152,312.8,153.1,313.6,153.4z"/>
	<path class="st0" d="M318,128.4c0.6,0.7,1.2-1.2,0.5-1.4C318,128.1,316.9,127.1,318,128.4z"/>
	<path class="st0" d="M272,268c-0.8,0.2-0.3,2.7,0.4,0.7C272.7,267.8,272,268,272,268z"/>
	<path class="st0" d="M268.4,267.8c-1.5-0.5-0.2,6.2,1.2,4.5c1-1.2-0.8-1.1-0.4-2.2C268,268.5,268.9,267.9,268.4,267.8z"/>
	<path class="st0" d="M316.9,124c0.7,0.2,1.2-1,0.3-0.8C316.8,124.3,315.8,123.7,316.9,124z"/>
	<path class="st0" d="M264.3,263.1c0.9,1.1,0.1-0.3,0.4-1.4C264.3,259.9,263.9,262.5,264.3,263.1z"/>
	<path class="st0" d="M304.8,112.5c0.2-0.1,0.1-0.6-0.2-1.2C303.3,109.3,303.6,113.1,304.8,112.5z"/>
	<path class="st0" d="M307.2,100.2c0.1-0.2-1.6-1.4-1.6-1.4C302.1,96.1,307.1,100.7,307.2,100.2z"/>
	<path class="st0" d="M242.7,281.8c-0.4,1.1-1.9,2.8-0.6,1.7C243.2,282.6,243.4,282,242.7,281.8z"/>
	<path class="st0" d="M231.6,310.4c-0.7-0.2-1.2,1.5-0.9,1.6C231.1,312.1,232.2,310.7,231.6,310.4z"/>
	<path class="st0" d="M297,86.8c0.8,0.6,1.3-0.1,0.6-0.9C297,85.2,296.1,86,297,86.8z"/>
	<path class="st0" d="M299.5,77.4c0.4,0.1,0.8-1,0-1.2C298.7,75.9,299.1,77.3,299.5,77.4z"/>
	<path class="st0" d="M224.2,303.5c-1.5-1.2-2.9,1.1-0.9,1.3C226,305.2,223.8,304.6,224.2,303.5z"/>
	<path class="st0" d="M297.5,71.8c1.5,2.8,0.2,0.5,0.5-0.6C297.2,69.1,296.2,69.5,297.5,71.8z"/>
	<path class="st0" d="M219,314.7c-0.4,1.1-1.6,1-0.5,1.4C219.3,316.4,219.9,314.5,219,314.7z"/>
	<path class="st0" d="M221.4,301.5c0.4,1.3,0.6,0.3,1-0.8C222.1,299.6,221.1,300.3,221.4,301.5z"/>
	<path class="st0" d="M225.8,288.1c-1,0.9-1,5.1,0.1,1.2C226.5,287.4,225.7,288.4,225.8,288.1z"/>
	<path class="st0" d="M216.8,315.9c-0.4,1.1-1.4,0.5-0.3,0.8C217.3,317,217.7,315.7,216.8,315.9z"/>
	<path class="st0" d="M296.6,67.2c-0.8-1.2-1.2-0.1-0.4,1.1C297,69.5,297.4,68.4,296.6,67.2z"/>
	<path class="st0" d="M292.3,81.3c0.2-0.6-0.3-1-0.3-1C291.3,79.4,291.7,83,292.3,81.3z"/>
	<path class="st0" d="M222.8,291.5c0.7,0.2,1.1-0.7,0.5-1.4C222.7,289.4,222.1,291.2,222.8,291.5z"/>
	<path class="st0" d="M289.4,76.8c1.2,0.8,1.7,0.1,0.6-0.8C289,75.2,288,75.9,289.4,76.8z"/>
	<path class="st0" d="M216.6,294.1c4.6-2.3,2.6,0,3.8-3.7C220,290.2,211.7,296.6,216.6,294.1z"/>
	<path class="st0" d="M215.2,306.1c-3.1-2.5,0,3.1,0.6,1.1C216,306.7,215.2,306.1,215.2,306.1z"/>
	<path class="st0" d="M209.7,320.7c1.1,0.4,0.5-0.5,0.9-1.6C210.1,319,209,320.5,209.7,320.7z"/>
	<path class="st0" d="M290.9,65.3c-0.8-1.2-1.2-0.1-0.4,1.1C291.4,67.7,291.8,66.6,290.9,65.3z"/>
	<path class="st0" d="M212.6,303.7c1.1,0.4,0.7,0.2,1-0.9C212.9,302.5,211.9,303.4,212.6,303.7z"/>
	<path class="st0" d="M209.9,311.1c1.5-0.7,0.9-0.6,1.3-1.7C210.8,309.3,206.3,312.9,209.9,311.1z"/>
	<path class="st0" d="M282.4,74.8c1,0.1,1,0,0.2-0.7C280.9,72.7,280.1,74.6,282.4,74.8z"/>
	<path class="st0" d="M210.2,295.9c-0.3-1.7-2.1-2.2-1.2,0.7C209.5,298.1,209.6,297.5,210.2,295.9z"/>
	<path class="st0" d="M199.8,326.2c-0.8-0.2-0.4,1.1,0,1.2C200.1,327.6,200.5,326.4,199.8,326.2z"/>
	<path class="st0" d="M207.4,297c0.7,0.2,1.1-0.7,0.5-1.4C207.2,294.9,206.7,296.8,207.4,297z"/>
	<path class="st0" d="M192.5,322.9c-0.1,0.9-0.4,1.4-1.1,1.4c-5,0.3,4.2,3.3,5.9-1.8C198.4,319.1,192.6,321,192.5,322.9z"/>
	<path class="st0" d="M182.9,327.3c0.4-0.5,0.3-0.7-0.4-0.7C180.5,326.7,181.7,328.8,182.9,327.3z"/>
	<path class="st0" d="M265.7,55.3c0.4,0.1,0.8-1,0-1.2C264.9,53.8,265.3,55.1,265.7,55.3z"/>
	<path class="st0" d="M177,327.5c-0.7-0.2-1.2,1-0.3,0.8C177.7,328.1,177.7,327.7,177,327.5z"/>
	<path class="st0" d="M175.4,329.6c-2.2,0.3-2.4,1.2-0.3,1C177.3,330.3,177.6,329.3,175.4,329.6z"/>
	<path class="st0" d="M172.5,330.1c-0.4,1.1-1.4,0.5-0.3,0.8C172.9,331.1,173.4,329.8,172.5,330.1z"/>
	<path class="st0" d="M171.9,324.8c1.3-0.1,0.7,0,1.1-1.1C172.7,323.6,170.4,324.9,171.9,324.8z"/>
	<path class="st0" d="M260.3,51.7c0.8,0.2,1.1-0.9,0.4-1.1C259.9,50.3,259.6,51.4,260.3,51.7z"/>
	<path class="st0" d="M268.9,22c-1-0.6-6.5-2.7-5-1.4C266,22.3,268.3,23.8,268.9,22z"/>
	<path class="st0" d="M161.9,329.1c5.4,0.7,4.5,1.1,4.9-0.3C166.8,327.5,155.8,328.3,161.9,329.1z"/>
	<path class="st0" d="M165,324.5c1-0.2,1-0.6,0.3-0.8C164.5,323.4,164.1,324.7,165,324.5z"/>
	<path class="st0" d="M169.6,300.4c-1.1,0-2.1,1.4-1,1.3C169.8,301.7,170.8,300.4,169.6,300.4z"/>
	<path class="st0" d="M146,323.6c-1.4-0.5-2.3,1.5-0.4,1.1C147.3,324.5,147.6,324.1,146,323.6z"/>
	<path class="st0" d="M234.2,37.5c-1.4-1.2,3.1,1,3.4,0.1c0.3-1.1-3.7-2.7-5.7-2.8c0.3,0.7,0.7,1.6,1.1,2.7
		C233.4,39.1,235.6,38.8,234.2,37.5z"/>
	<path class="st0" d="M230.7,35.2c0.2-0.3,0.6-0.3,1.1-0.3C227.6,25.5,226,42.9,230.7,35.2z"/>
	<path class="st0" d="M138,326.4c-2.9-0.5-4.8,0.3-1.8,0.6C141.4,327.6,137.6,327.5,138,326.4z"/>
	<path class="st0" d="M232.6,14.1c1.4-0.5,0.6,0.2,0.9-1C230.2,12.1,228.7,15.5,232.6,14.1z"/>
	<path class="st0" d="M223.3,31.6c-0.8-0.2-0.4,1.1,0,1.2C223.7,33,224.1,31.9,223.3,31.6z"/>
	<path class="st0" d="M219.9,29.9c-0.5-0.8-0.4-1.1,0.3-1.3c0.7-0.2,0.6-0.3-0.1-0.6C217.6,27.3,219.5,31,219.9,29.9z"/>
	<path class="st0" d="M223.8,11c1.2,0.4,0.5,0.8,0.9-0.3C223.9,9.2,221.5,10.3,223.8,11z"/>
	<path class="st0" d="M223.2,13c1.1,0.4-0.1,0.3,0.3-0.8C222.9,11.4,222.5,12.7,223.2,13z"/>
	<path class="st0" d="M204.4,35.2c-0.4-0.7-1.6-1.2-1,0C204.2,36.7,204.1,36.3,204.4,35.2z"/>
	<path class="st0" d="M202.5,34.8c0.4-1.3-0.6-1.3-0.6-1.4c-1.3-0.4-0.1,0.5-1.3,1.2C199.4,35.4,202,36.3,202.5,34.8z"/>
	<path class="st0" d="M101.4,312.9c1.1,0.4,1.7,0.5,2-0.6C102.7,312.1,100.7,312.7,101.4,312.9z"/>
	<path class="st0" d="M194.2,29.6c1.1,0.4,0.1-0.3,0.5-1.4C194.1,27.5,193.5,29.4,194.2,29.6z"/>
	<path class="st0" d="M187.8,36.2c0.7,0.2,1.1-0.9,0-1.2C186.7,34.6,187,36,187.8,36.2z"/>
	<path class="st0" d="M185.9,33.3c1,0.8,1.4-0.4,0.2-0.8C185.1,32.2,184.9,32.5,185.9,33.3z"/>
	<path class="st0" d="M179.8,35.2c2.3-0.5,2.7-0.3,0.1-0.6C176.4,34.3,177,35.8,179.8,35.2z"/>
	<path class="st0" d="M91.4,306.5c-0.8-0.2-1.9,0.6-0.7,1C91.8,307.9,92.1,306.8,91.4,306.5z"/>
	<path class="st0" d="M178.5,31.3c-0.9-0.3-1.5,0.2-0.5,1.7C179,34.6,179.4,31.6,178.5,31.3z"/>
	<path class="st0" d="M178.2,25.4c-0.4,1.1-1.4,0.5-0.3,0.8C178.7,26.4,179.1,25.2,178.2,25.4z"/>
	<path class="st0" d="M171,36.3c-0.4,1.1,1.9,1.1,2.2,0c-0.9,0-1.1-0.1-0.6-0.8c0.8-1,0.5-1.1-2.2-1C164.8,34.7,171.3,35.2,171,36.3
		z"/>
	<path class="st0" d="M174,26.8c1.9-0.3,0.9-0.4,1.2-1.5C174.2,25,171.3,27.3,174,26.8z"/>
	<path class="st0" d="M171.1,26.4c0.2-0.8-1.2-0.4-1.2-0.4C166.7,26.7,170.6,27.8,171.1,26.4z"/>
	<path class="st0" d="M165.2,35.7c1.1,0.4,0.9-0.4,1.2-1.5C166,34.1,164,35.3,165.2,35.7z"/>
	<path class="st0" d="M164.7,28.4c1.3-1,2.3,0,2.9-1.8C165,25.7,163.5,29.2,164.7,28.4z"/>
	<path class="st0" d="M76.4,306.6c-0.8-0.2-0.4,1.1,0,1.2C76.8,308,77.2,306.9,76.4,306.6z"/>
	<path class="st0" d="M163.7,35.5c0.3-0.2-0.5-0.4-1.6-0.6C156.3,34.2,157.5,39.2,163.7,35.5z"/>
	<path class="st0" d="M164.5,29.3c-0.4,1.1-1.5,0.1-0.5,1.4C164.7,31.4,165.3,29.5,164.5,29.3z"/>
	<path class="st0" d="M84.3,270.7c-1.5-0.5-1.1,0.9,0,1.2C85.4,272.3,85.8,271.2,84.3,270.7z"/>
	<path class="st0" d="M158.3,39c0.8,0.2,1.6-0.5,0.6-0.9C157.8,37.8,157.5,38.8,158.3,39z"/>
	<path class="st0" d="M160.5,28.2c3.2,0.7,0.7-0.4,1.1-1.5c-1.1-1.8,0.3-0.1-2.8,0.3C153.2,27.8,159.3,28,160.5,28.2z"/>
	<path class="st0" d="M166.1,11.2c0.8,0.2,1.8-0.6,0.7-1C165.6,9.8,165.3,10.9,166.1,11.2z"/>
	<path class="st0" d="M81.6,269.6c-0.4,1.1-1.4,0.5-0.3,0.8C82.1,270.6,82.5,269.3,81.6,269.6z"/>
	<path class="st0" d="M154.4,38.1c0.8-0.4-0.3-4.1,1.2-1c0.6,1.2,1.1-0.1,0.1-1C153.2,34,152.5,39.1,154.4,38.1z"/>
	<path class="st0" d="M66.4,302.3c1.6,0.7,1.5,0.8,1.9-0.3C67.5,300.5,61.1,299.9,66.4,302.3z"/>
	<path class="st0" d="M78.2,265.5c-0.7,0.9-0.2,1.9,0.2,0.4C78.7,264.8,78.2,265.5,78.2,265.5z"/>
	<path class="st0" d="M153.2,27.8c0.7-0.5,0.7-0.6-0.4-0.7C149.5,27,151.3,29.1,153.2,27.8z"/>
	<path class="st0" d="M151.6,31c0.3-0.9,1.4-0.5,1.6-1c0.2-0.7-1.2-0.3-1.1-0.6C149.1,29.3,150.8,33.4,151.6,31z"/>
	<path class="st0" d="M75.5,265.4c-0.8-0.2-0.4,1.1,0,1.2C75.9,266.8,76.3,265.6,75.5,265.4z"/>
	<path class="st0" d="M159.4,5c0.9-0.2,1-0.6,0.3-0.8C158.9,3.9,158.5,5.2,159.4,5z"/>
	<path class="st0" d="M63.2,299.6c-0.6-0.7-1.7,0.4-0.6,0.7C63.9,300.7,62.8,300.7,63.2,299.6z"/>
	<path class="st0" d="M148.1,25.1c-0.7,0.9-0.2,1.9,0.2,0.4C148.7,24.3,148.1,25.1,148.1,25.1z"/>
	<path class="st0" d="M70.4,260.1c-2.6-1.9-2,0.5,0.3,1.7C72.2,262.6,72,261.3,70.4,260.1z"/>
	<path class="st0" d="M67.5,258.2c-0.4-0.7-1.6-1.2-1,0C67.3,259.7,67.2,259.4,67.5,258.2z"/>
	<path class="st0" d="M147.9,4.9c1.3-0.1,0.7,0,1.1-1.1C148.6,3.6,146.4,4.9,147.9,4.9z"/>
	<path class="st0" d="M147.7,6.7c1-0.2,1-0.6,0.3-0.8C147.2,5.7,146.8,7,147.7,6.7z"/>
	<path class="st0" d="M141.5,25.8c-0.4,1.1-1.4,0.5-0.3,0.8C141.9,26.9,142.4,25.6,141.5,25.8z"/>
	<path class="st0" d="M64.9,249.3c-1-0.8-1.4,0.4-0.2,0.8C65.7,250.4,65.9,250.1,64.9,249.3z"/>
	<path class="st0" d="M132.5,40c0.7,0.2,1.3-1.4,0.5-1.7C132.3,38.1,131.8,39.8,132.5,40z"/>
	<path class="st0" d="M133.5,32.9c1.1,0.4,0.7,0.2,1-0.9C133.8,31.7,132.8,32.6,133.5,32.9z"/>
	<path class="st0" d="M51.3,281.7c-8.7-7.1-9.5-4.7-2.1-0.3C54,284.3,50.9,282.8,51.3,281.7z"/>
	<path class="st0" d="M133.3,28.1c1-0.2,1-0.6,0.3-0.8C132.8,27.1,132.4,28.4,133.3,28.1z"/>
	<path class="st0" d="M60.5,251.5c-0.4,1.1-1-1.6-1.2-0.4C59.1,253.7,63.2,251.3,60.5,251.5z"/>
	<path class="st0" d="M59.6,246.4c-0.4-0.7-1.6-1.2-1,0C59.4,247.8,59.2,247.5,59.6,246.4z"/>
	<path class="st0" d="M124.7,32.2c4.2-1.5,4.6-2,0.3-1.1c-2.8,0.6-3,0.5-1.7-0.2c0.8-0.5,1.2-0.9,0.9-1
		C122.4,29.3,118.6,34.4,124.7,32.2z"/>
	<path class="st0" d="M52.8,239.9c0.6,0,0.7-0.2,0.3-0.7C51.9,237.8,50.9,239.9,52.8,239.9z"/>
	<path class="st0" d="M113.4,51.2c0.8,0.2,1.1-0.9,0.4-1.1C113,49.8,112.6,50.9,113.4,51.2z"/>
	<path class="st0" d="M118.7,27.1c-0.4,1.1-1.4,0.5-0.3,0.8C119.2,28.2,119.6,26.9,118.7,27.1z"/>
	<path class="st0" d="M114,40.3c1.4-0.5,0.8,0.2,1.1-0.9C114.8,39.2,111.9,41,114,40.3z"/>
	<path class="st0" d="M53.5,229.9c0.9-2.7-3.4-0.5-3.7-1.9c-0.3-1.2-3.1-2.4-2.9-1.5c0.4,1.6-1.8-1.2-1.9-1
		c-0.4,1.1,2.4,3.9,2.1,2.3C46.2,223.9,52.3,233.6,53.5,229.9z"/>
	<path class="st0" d="M49.1,233.9c1.1,0.4-0.1,0.3,0.3-0.8C48.8,232.3,48.4,233.6,49.1,233.9z"/>
	<path class="st0" d="M51.4,220.3c-0.9-1.3-1.8,1.4-0.4,1.3C52.2,221.6,52.2,221.5,51.4,220.3z"/>
	<path class="st0" d="M110.2,36.8c1.1-0.1,1.4-0.4,0.6-0.7C110.2,35.9,108.9,36.8,110.2,36.8z"/>
	<path class="st0" d="M107.4,46.7c0.7,0.2,1.4-1.6,0.5-1.4C107.5,46.4,106.3,46.4,107.4,46.7z"/>
	<path class="st0" d="M112.2,30c-0.4,1.1-1.4,0.5-0.3,0.8C112.7,31.1,113.1,29.8,112.2,30z"/>
	<path class="st0" d="M46.1,230.5c0.3-0.3,0.3-0.7,0-1.1C44.8,227.8,45.3,231.2,46.1,230.5z"/>
	<path class="st0" d="M49.3,217.4c-3.8-6.4-1.4,0-2.1,1c-0.6,0.8-5.2-8.4-5.9-6.4c-0.2,0.6,1.8,2.6,1.4,2.8c-2,1-4.1-1.8-5.2-2.1
		c-2.6-0.8,2.6,3.9,5.1,2.6C43.8,214.8,47.3,223.7,49.3,217.4z"/>
	<path class="st0" d="M47,223.6c-1.2-1.4-2.1,0.7-0.3,0.7C47.4,224.3,47.4,224.1,47,223.6z"/>
	<path class="st0" d="M106.8,35.4c-0.2,0.6-0.9,1.1-1.1,1.2c0.1,0,0.2-0.1,0.4-0.2C107.3,35.9,107.5,35.6,106.8,35.4z"/>
	<path class="st0" d="M105.6,36.6C105.5,36.7,105.5,36.7,105.6,36.6L105.6,36.6z"/>
	<path class="st0" d="M104.8,41.3c-0.4,1.1-1.4,0.5-0.3,0.8C105.3,42.3,105.7,41,104.8,41.3z"/>
	<path class="st0" d="M104.8,39.4c1-0.2,1-0.6,0.3-0.8C104.3,38.3,103.9,39.6,104.8,39.4z"/>
	<path class="st0" d="M96.1,60c0.4-3.8-1.4-2.2-1-0.5c0.4,1.7,0,2.9-1,2.9C93.1,62.4,94.2,65.7,96.1,60z"/>
	<path class="st0" d="M93.7,66.7c0.5-0.7,0.5-0.8-0.2-0.4C93.1,67.4,93,67.7,93.7,66.7z"/>
	<path class="st0" d="M104.9,29.5c-0.4,1.1-1.4,0.5-0.3,0.8C105.4,30.6,105.8,29.3,104.9,29.5z"/>
	<path class="st0" d="M42.8,217.4c-1.3-0.8-2.6,0.6-0.8,0.8C44.5,218.5,42.4,218.5,42.8,217.4z"/>
	<path class="st0" d="M42.7,219.4c-0.8-0.2-1.1,0.9-0.4,1.1C43.1,220.7,43.4,219.6,42.7,219.4z"/>
	<path class="st0" d="M94.3,60.4c0.3-1-0.2-1.4-0.1-1.5C93,57.5,93.7,62.2,94.3,60.4z"/>
	<path class="st0" d="M40.2,221.8c-4.6-4.3,0.7,3.1,1.1,1.6C41.5,223,40.2,221.8,40.2,221.8z"/>
	<path class="st0" d="M97.6,44.5c1-0.2,1-0.6,0.3-0.8C97.1,43.4,96.7,44.7,97.6,44.5z"/>
	<path class="st0" d="M95.4,49.4c-0.4,1.1-1.4,0.5-0.3,0.8C95.8,50.4,96.3,49.2,95.4,49.4z"/>
	<path class="st0" d="M89.5,62.7c1.3,0.4,1.1-1.8,2.2-2.1c1.6-0.4,0.1-0.3,0.5-1.4C91.9,59.1,87.6,62.1,89.5,62.7z"/>
	<path class="st0" d="M96,43.6c1-1,1-1.1-0.2-0.4C94,44,94.5,45,96,43.6z"/>
	<path class="st0" d="M93.9,49.8c0.3-0.4,0.1-0.6-0.3-0.6C92,49.2,93,51.1,93.9,49.8z"/>
	<path class="st0" d="M87.8,65.7c1.2-2.2,1.3-2.6,0.7-2.7C86.2,62.2,85.6,69.7,87.8,65.7z"/>
	<path class="st0" d="M41.1,208.9c1.1,0.4-0.1,0.3,0.3-0.8C40.8,207.4,40.4,208.7,41.1,208.9z"/>
	<path class="st0" d="M40.7,211.3c0.4,0.1,0.8-1,0-1.2C39.9,209.8,40.3,211.1,40.7,211.3z"/>
	<path class="st0" d="M37.9,218.8c-0.6-0.7-1,0.6-0.3,0.8C38.7,220,37.6,219.9,37.9,218.8z"/>
	<path class="st0" d="M87.4,53c0.9-0.2,1-0.4,0.4-1.1C87.1,51.2,86.5,53.2,87.4,53z"/>
	<path class="st0" d="M44.2,187.6c0.3-0.8-0.1-0.6-0.1-0.8C43.5,187.6,43.6,189.5,44.2,187.6z"/>
	<path class="st0" d="M45.3,177.5c-1.2-2-0.3,0.2-0.6,1.4C44.4,179.6,46.7,179.9,45.3,177.5z"/>
	<path class="st0" d="M37.5,202.8c-0.7-0.2-1.4,1.6-0.5,1.4C38.7,203.8,37.1,203.9,37.5,202.8z"/>
	<path class="st0" d="M30.5,215.9c2.8,6.3,2.7,3.6,1.2,1.6L30.5,215.9z"/>
	<path class="st0" d="M36.1,205.9c-0.7,0.9-0.2,1.9,0.2,0.4C36.6,205.2,36.1,205.9,36.1,205.9z"/>
	<path class="st0" d="M79.4,69.9c-0.7-0.2-1.2,1-0.3,0.8C80.1,70.5,80.1,70.1,79.4,69.9z"/>
	<path class="st0" d="M48.8,159.8C49.1,157.5,48.4,157.2,48.8,159.8L48.8,159.8z"/>
	<path class="st0" d="M49.1,161.4c-0.1-0.6-0.2-1.1-0.3-1.6c-0.1,0.7-0.3,1.5-0.6,2.4C47.4,164.7,50.3,166.5,49.1,161.4z"/>
	<path class="st0" d="M82.5,58.5c1.2,0.4,0.3-0.9,0.6-2C82.5,55.9,81.7,58.3,82.5,58.5z"/>
	<path class="st0" d="M36.4,202.5c0.2-0.6-3.3-5.1-3.8-4.8C32.1,197.9,35.8,204.1,36.4,202.5z"/>
	<path class="st0" d="M32.8,211.5c-0.4,1.1-1.4,0.5-0.3,0.8C33.3,212.6,33.7,211.3,32.8,211.5z"/>
	<path class="st0" d="M81.2,60.2c0.3-1.2-0.2-0.4-0.2-0.4C80.3,60.6,80.8,61.7,81.2,60.2z"/>
	<path class="st0" d="M46.6,164.8c-0.1-1.8,1.1-3.4,0.3-3.6C45.1,160.6,45,169.9,46.6,164.8z"/>
	<path class="st0" d="M43.2,175.8c0.8-0.2,0.8-0.2,0.5-1.4C43.1,172.6,42.5,175.9,43.2,175.8z"/>
	<path class="st0" d="M79.8,61.8c-0.8-1.6-2.8,1.9-1.9,3C78.9,65.9,79.4,62.9,79.8,61.8z"/>
	<path class="st0" d="M76.3,69.9c1.6-0.4,0.1-0.3,0.5-1.4C76,68.2,75.4,70.1,76.3,69.9z"/>
	<path class="st0" d="M75,74.1c1.1,0.4,0.5-0.5,0.9-1.6C75.4,72.4,74.3,73.9,75,74.1z"/>
	<path class="st0" d="M35.9,194.2c1.1,0.4-0.1,0.3,0.3-0.8C35.6,192.7,35.2,194,35.9,194.2z"/>
	<path class="st0" d="M30.6,208.6c0.7,0.2,1.1-0.7,0.5-1.4C30.5,206.5,29.9,208.4,30.6,208.6z"/>
	<path class="st0" d="M72.2,77.3C74.2,78.8,70.6,76,72.2,77.3L72.2,77.3z"/>
	<path class="st0" d="M68.7,89.4c0.1-0.3-0.9,0.1-0.8-0.1C65.6,90.4,68.4,90.5,68.7,89.4z"/>
	<path class="st0" d="M33.4,194.2c2.8,0.2,0.2-2.1,0.6-3.2c-10.9-31.7,0.8,1.5-0.9,2.6C32.4,194,32.4,194.1,33.4,194.2z"/>
	<path class="st0" d="M69.2,81.6c-0.8-1.3-3.1,1.1-0.5,1C69.7,82.6,69.7,82.5,69.2,81.6z"/>
	<path class="st0" d="M70.8,75.2c1.1,0.4-0.1,0.3,0.3-0.8C70.5,73.7,70.1,75,70.8,75.2z"/>
	<path class="st0" d="M45.4,151.5c-0.3,1.2,0.8,1.7,0.9,1C47.1,145.6,46.3,147.5,45.4,151.5z"/>
	<path class="st0" d="M35.7,179.1c-2.7,1.1-0.8-7-1.9-7.3c-2.8-0.9-4.4-6.9-5.3-4.1c-0.4,1.1,1.1,9.9,2.3,6.3
		c0.4-1.2-0.7-1.6-0.5-2.2c0.7-2,3.9,9.5,4,10.7c0.3,4.7,0.5-0.6,1.5,0.2c1.2,1,0,0.3,0.3-0.8C34.9,180.2,37.9,178.3,35.7,179.1z"/>
	<path class="st0" d="M30.3,197.2c-0.9-0.7-1.2,1.1-1.4-0.5c-0.2-2.2-1.8,1.6,1.1,2.5C30.9,199.4,31.1,197.8,30.3,197.2z"/>
	<path class="st0" d="M78.5,47.9c2.3-1.8,0.1-0.4,0.4-1.1C77.6,47.7,77.4,48.7,78.5,47.9z"/>
	<path class="st0" d="M61.4,102.2c0.3-1.2-0.2-0.4-0.2-0.4C60.5,102.6,61,103.6,61.4,102.2z"/>
	<path class="st0" d="M65.2,86.7c-0.8,0.2-0.3,2.7,0.4,0.7C65.9,86.6,65.2,86.7,65.2,86.7z"/>
	<path class="st0" d="M63.2,91c-2.5,0.6,0.2-7.7-0.1-7.8C62,82.9,53.4,98.9,58,94.6c0.9-0.9,1.2-0.9,0.9-0.2
		C58.3,96.8,62.2,94.3,63.2,91z M61.5,90.2c1.1,0.4-1.7,4.4-1.3,3.3C59.8,93.4,60.9,90,61.5,90.2z"/>
	<path class="st0" d="M75,52.7c-0.4,1.1-1.4,0.5-0.3,0.8C75.5,53.8,75.9,52.5,75,52.7z"/>
	<path class="st0" d="M43.5,147.6l-0.5-2.3C42,152.8,44.6,153.1,43.5,147.6z"/>
	<path class="st0" d="M73.2,56.3c0.4-1.3-0.1-1.5,0-1.7C71.6,52.7,72.4,59,73.2,56.3z"/>
	<path class="st0" d="M25.7,199c-0.7-0.2-1.9,0.8-0.6,0.7C26.2,199.6,26.5,199.2,25.7,199z"/>
	<path class="st0" d="M43.9,142.8c0.2-0.6-0.3-1-0.3-1C42.9,141,43.4,144.5,43.9,142.8z"/>
	<path class="st0" d="M34.8,169.5c-0.7,0.9-0.2,1.9,0.2,0.4C35.4,168.8,34.8,169.5,34.8,169.5z"/>
	<path class="st0" d="M34.5,157.1c-0.9,1.6,1.1,10.5,0.1,6.9c-0.3-0.9-0.3-0.9-0.6-0.2c-0.3,0.9,0.4,4.2,1,2.7
		C36.2,163.2,35,156.2,34.5,157.1z"/>
	<path class="st0" d="M31.5,177.3c-0.8-0.2-1.1,0.9-0.4,1.1S32.3,177.5,31.5,177.3z"/>
	<path class="st0" d="M28.9,185.4c0.6,0.7,1.2-1.2,0.5-1.4C29,185.1,27.8,184.2,28.9,185.4z"/>
	<path class="st0" d="M41.5,143.3c1.3,0.4,0.2,0.4,0.6-0.7C41.6,141.9,40.4,142.9,41.5,143.3z"/>
	<path class="st0" d="M17.5,220.5c0.2-0.6-0.3-1-0.3-1C16.5,218.6,16.9,222.2,17.5,220.5z"/>
	<path class="st0" d="M61.2,66.5c-1.6-0.5-3.6,8.7-1.1,4.2c0.9-1.7,1.8-3.1,2.6-4.4C62.2,66.6,61.7,66.7,61.2,66.5z"/>
	<path class="st0" d="M62.7,66.4C67.6,64.2,73.7,47.8,62.7,66.4L62.7,66.4z"/>
	<path class="st0" d="M28.7,182.2c-0.6-0.7-1,0.6-0.3,0.8C29.5,183.4,28.3,183.3,28.7,182.2z"/>
	<path class="st0" d="M63.9,73.4c0.4-1.2-0.5-0.1-0.5-0.3C61.2,75.7,63.4,75.2,63.9,73.4z"/>
	<path class="st0" d="M41.5,140.8c1.1,0.4-0.1,0.3,0.3-0.8C41.2,139.3,40.7,140.6,41.5,140.8z"/>
	<path class="st0" d="M51.2,107.9c1.5-15.6-3,6.6-3.4,7.7C47.1,117.9,46.1,123.5,51.2,107.9z"/>
	<path class="st0" d="M41.7,138.4c1.1,0.4-0.1,0.3,0.3-0.8C41.3,136.8,40.9,138.1,41.7,138.4z"/>
	<path class="st0" d="M61.8,76.2c0.3-1.2-0.2-0.4-0.2-0.4C60.8,76.7,61.4,77.7,61.8,76.2z"/>
	<path class="st0" d="M39.3,142.6c2.1-0.8,0.3-3,1.2-5.5C41,115.8,37.9,143.2,39.3,142.6z"/>
	<path class="st0" d="M22.8,195.4c0.2-0.1,0.1-0.6-0.2-1.2C21.3,192.2,21.7,196,22.8,195.4z"/>
	<path class="st0" d="M38.7,144.1c-0.7,0.9-0.2,1.9,0.2,0.4C39.3,143.4,38.7,144.1,38.7,144.1z"/>
	<path class="st0" d="M33.1,158.9c-1.3-4.7-0.8,3.1-0.3,3C34.5,161.4,32.8,160,33.1,158.9z"/>
	<path class="st0" d="M31,166.5c1.5-0.6,1.4-1-0.4-2.4C25.6,160.2,30.1,166.9,31,166.5z"/>
	<path class="st0" d="M65.6,58.6c2.2-1.8,0.6-1.7,0.9-2.8C66,55.7,64.2,59.8,65.6,58.6z"/>
	<path class="st0" d="M26.8,176.7c-0.6-0.7-1.2,1.2-0.5,1.4C27.4,178.4,26.4,177.8,26.8,176.7z"/>
	<path class="st0" d="M66.7,48.4c0.4,0.1,2.3-1.7,2-1.8C68.3,47.7,65.6,48.1,66.7,48.4z"/>
	<path class="st0" d="M33.8,154.7c0.3-1.2-0.2-0.4-0.2-0.4C32.9,155.1,33.4,156.1,33.8,154.7z"/>
	<path class="st0" d="M71.9,33.7c0.9-0.2,1.3-1.3,0.4-1.1C71.4,32.8,71,33.9,71.9,33.7z"/>
	<path class="st0" d="M55.3,68.3c1.2,0.4,7.9-7.1,8.7-9.6C63.7,58.6,53.3,67.7,55.3,68.3z"/>
	<path class="st0" d="M24.8,177.7c-0.5-1.6-2.1-3.1-1.7-0.1C23.5,180.5,25.9,181.1,24.8,177.7z"/>
	<path class="st0" d="M32.7,150.7c-0.4,1.1-1.4,0.5-0.3,0.8C33.2,151.7,33.6,150.5,32.7,150.7z"/>
	<path class="st0" d="M29,161c0.3-0.2,0.1-0.7-0.3-1C27.1,158.8,27.9,162,29,161z"/>
	<path class="st0" d="M23.7,170.4c0.3-0.3,3.1,4.8,1.4,0.4c-0.8-1.9-2.7-1.3-2.2-0.4C23,170.9,23.4,170.8,23.7,170.4z"/>
	<path class="st0" d="M68.4,36.9c0.9-0.2,1.3-1.3,0.4-1.1C67.8,36,67.5,37.1,68.4,36.9z"/>
	<path class="st0" d="M29,158.2c1.1-0.3,1.2-1.1,0-1.8C26.7,155,28.1,158.4,29,158.2z"/>
	<path class="st0" d="M36.1,131.6c-0.2-0.1-0.4-7.1-0.4-7.3C34.9,128.3,34.5,136.4,36.1,131.6z"/>
	<path class="st0" d="M32.2,145.2c1.1,0.4,0.1-1.4,0.4-2.5C32.3,137.5,31.1,144.9,32.2,145.2z"/>
	<path class="st0" d="M24.8,162.6c0.4,0.6,0.7,0.7,0.8,0.4C26,161.7,23.4,160.5,24.8,162.6z"/>
	<path class="st0" d="M51.8,78.9c-0.7,0.9-0.2,1.9,0.2,0.4C52.4,78.1,51.8,78.9,51.8,78.9z"/>
	<path class="st0" d="M31.8,138.8c-0.7,0.9-0.2,1.9,0.2,0.4C32.3,138,31.8,138.8,31.8,138.8z"/>
	<path class="st0" d="M29.6,146.2c0.4,0.1,0.9-1.6,0.2-1.8C29.1,144.2,29.2,146.1,29.6,146.2z"/>
	<path class="st0" d="M28.1,148.6c-0.3-2.6-0.9-0.8-0.4,1.4C28.2,152.6,27.7,149.8,28.1,148.6z"/>
	<path class="st0" d="M58.7,53.4c0.3-0.8-0.6-0.2-0.5-0.3C55.9,55,58.1,55.1,58.7,53.4z"/>
	<path class="st0" d="M49.2,82.6c0.5-1.7-0.3-0.9-0.2-1.1C46.2,84.6,47.9,86.7,49.2,82.6z"/>
	<path class="st0" d="M32.3,133.3c0.2-1.7-1.8-1-1.1-2.9c0.4-0.9,0.5-1,0.4-0.1c-0.1,1.6,0.9,1.5,1.2-0.2c0.7-3.3-1.1-1.5-1.4-3.2
		c-0.8-4.1,3.5-4.9,3.5-5.4c-0.7-11.4-6.9,6.1-4.1,11.4C32.1,135.2,31.9,134.6,32.3,133.3z"/>
	<path class="st0" d="M22.3,159.7c0.8,0.9,0.7,3.7,1,2.5c0.3-0.9-0.4-3.4-0.4-3.4c-2-7.3-1.8,1.4-1.5,1.8
		C22,161.4,21.5,158.8,22.3,159.7z"/>
	<path class="st0" d="M30,137.7c1.3,0.4,0.3-1.8,0.6-3C29.4,132.6,28.9,137.3,30,137.7z"/>
	<path class="st0" d="M25.1,150.4c-0.1,0.3-0.5-2.4-0.9-6C24.8,152.4,25.4,160.5,25.1,150.4z"/>
	<path class="st0" d="M23.5,133.9c-1.1-8.6-0.1,2.8,0.7,10.5C23.9,139.4,23.6,134.4,23.5,133.9z"/>
	<path class="st0" d="M43.4,91.3c1.7,2.6,0.1,3.8,2.6-3.6C43.3,92.7,42.5,90,43.4,91.3z"/>
	<path class="st0" d="M34.1,125.2c0.3-1-0.2-1.4-0.1-1.5C32.8,122.4,33.5,127,34.1,125.2z"/>
	<path class="st0" d="M55.3,57.1c1.1-2.3-1.9,1.6-1.8,1.1C43,70.6,53.3,61.2,55.3,57.1z"/>
	<path class="st0" d="M48.3,77.8c1.3-1.1,0.7-1.5,1.1-2.6C48.9,75.5,47,78.8,48.3,77.8z"/>
	<path class="st0" d="M39.6,102.6c-0.1-1.4,1.9-8.7,2.8-7.3c0.8,1.2,1.2-0.1,0-1.3c-1.3-1.4-0.8-0.5-3.8,6.9
		C36.8,105.5,39.7,104.3,39.6,102.6z"/>
	<path class="st0" d="M41.6,99.9c0.3-1.1,0-0.8,0.1-1.1C40.9,100,40.8,102.5,41.6,99.9z"/>
	<path class="st0" d="M35.5,117.9c1.8-0.9,0.3-4,1.1-4.2c0.9-0.2,0.9-0.3,0-0.6c-0.8,2.4,0.3-5.2,0.3-6.4
		C37.1,102.6,31.4,120,35.5,117.9z M35.9,116c-0.4,1.1-1.3,1.6-0.9,0.5C34.4,115.4,36.6,113.9,35.9,116z"/>
	<path class="st0" d="M55.6,53.3c0.2-0.8-3.1,2.9-2.8,2.1C43.7,64.7,53.6,60,55.6,53.3z"/>
	<path class="st0" d="M21.8,153.6c0.7,0.2,1.2-1,0.3-0.8C21.7,153.9,20.7,153.3,21.8,153.6z"/>
	<path class="st0" d="M45.6,80.1c0.3-0.8-0.1-0.6-0.1-0.8C44.8,80.1,44.9,82,45.6,80.1z"/>
	<path class="st0" d="M41.5,90.8c0.3-1.2-0.2-0.4-0.2-0.4C40.6,91.2,41.1,92.2,41.5,90.8z"/>
	<path class="st0" d="M39,92.5c0.3-1-0.1-0.6-0.1-0.8C38.2,92.9,38.3,94.8,39,92.5z"/>
	<path class="st0" d="M34.4,107.2c0.4-1.2,0.4-1.5-0.3-1.2C33.5,107.8,33.6,109.5,34.4,107.2z"/>
	<path class="st0" d="M19.8,152.1c0.1-0.3-0.7-1.3-0.7-1.3C17.6,148.6,19.6,152.7,19.8,152.1z"/>
	<path class="st0" d="M32.3,108c-0.8-0.2-1.1,0.9-0.4,1.1C32.7,109.4,33,108.3,32.3,108z"/>
	<path class="st0" d="M42.3,71.2c1-0.2,1-0.6,0.3-0.8C41.9,70.2,41.4,71.5,42.3,71.2z"/>
	<path class="st0" d="M18.4,135.2c-0.2,0.5,0.2-2.3-1,1.5C16.7,138.8,20.3,139.8,18.4,135.2z"/>
	<path class="st0" d="M32.5,87.8c-0.1-1.4-2.4,5.2-2,6.6C31,96.3,32.1,88.9,32.5,87.8z"/>
	<path class="st0" d="M27.4,104.4c-0.7,0.9-0.2,1.9,0.2,0.4C28,103.7,27.4,104.4,27.4,104.4z"/>
	<path class="st0" d="M19.5,128.4c0.9,1.1,0.4-1.4,0.8-2.5C19.8,124.1,19,127.8,19.5,128.4z"/>
	<path class="st0" d="M20.3,122.4c-0.2,2.2,0.4-1.8,0.8-2.9C19.1,115.4,20.4,121.2,20.3,122.4z"/>
	<path class="st0" d="M15.7,135.2c0.1,4.1,0.3-0.9,0.6-2C16.1,130.3,15.6,132.1,15.7,135.2z"/>
	<path class="st0" d="M32.4,83.8c0.9-2.1,0.1-1.3,0.3-1.7C30.2,85.3,29.7,90.3,32.4,83.8z"/>
	<path class="st0" d="M9.3,147.5c-1.8-4.7-0.8,3-0.2,3.2C11,151.4,8.9,148.7,9.3,147.5z"/>
	<path class="st0" d="M12,132.8l-0.3-1.9C10.7,139.7,12.5,131.5,12,132.8z"/>
	<path class="st0" d="M12.8,126.7c-0.8,1.2-0.9,3.7-0.1,1.1C13.1,126.7,12.7,126.9,12.8,126.7z"/>
	<path class="st0" d="M13.9,120.7c-0.8-0.2-0.4,1.1,0,1.2C14.2,122,14.6,120.9,13.9,120.7z"/>
	<path class="st0" d="M2,144.9c0.2,2,0.5,6.6,2.2,1.4C3.3,145.2,0.6,127.4,2,144.9z"/>
	<path class="st0" d="M21.1,90.9c1.5-4.7,0.3-2.6,0.5-3.2C19.2,89.6,18.3,99.4,21.1,90.9z"/>
	<path class="st0" d="M14.7,105.3c-0.7,0.9-0.2,1.9,0.2,0.4C15.3,104.5,14.7,105.3,14.7,105.3z"/>
	<path class="st0" d="M5.3,133.7c0.6,0.7,1-0.4,0.4-1.1C5.1,131.9,4.7,133,5.3,133.7z"/>
	<path class="st0" d="M10.5,111.2c-0.5,2.6-1.1,4.9,1.7-3.7C12.9,101.5,12.6,99.7,10.5,111.2z"/>
	<path class="st0" d="M18.1,90.1c0.3-1-0.1-0.6-0.1-0.8C17.3,90.5,17.4,92.4,18.1,90.1z"/>
	<path class="st0" d="M-11.6,160.8c-0.7-0.2-1.2,1.5-0.9,1.6C-12,162.5-10.9,161-11.6,160.8z"/>
	<path class="st0" d="M309.6,133.1c-0.6-0.7-1,0.4-0.4,1.1C309.8,135,310.2,133.8,309.6,133.1z"/>
	<path class="st0" d="M307.6,134.5c0.2-0.1,0.1-0.6-0.2-1.2C306.1,131.3,306.4,135.1,307.6,134.5z"/>
	<path class="st0" d="M301.6,174.9c1.1,0.4,0.1-0.3,0.5-1.4C301.5,172.8,300.9,174.7,301.6,174.9z"/>
	<path class="st0" d="M298.6,163.1c-0.6-0.7-1,0.6-0.3,0.8C299.5,164.3,298.3,164.2,298.6,163.1z"/>
	<path class="st0" d="M302.3,135.4C300.9,133.3,304.2,138.3,302.3,135.4L302.3,135.4z"/>
	<path class="st0" d="M268.3,203.2c-0.7-0.2-0.6,1.7-0.2,1.8C268.4,205.1,268.9,203.4,268.3,203.2z"/>
	<path class="st0" d="M290,100.7C287.6,98.7,292.4,102.6,290,100.7L290,100.7z"/>
	<path class="st0" d="M97.2,76.3c1.1,0.4-0.1,0.3,0.3-0.8C96.8,74.8,96.4,76.1,97.2,76.3z"/>
	<path class="st0" d="M67.6,111c-0.4,1.1-4,0.8-1.9,3.2C66.7,115.4,69.2,110.9,67.6,111z"/>
	<path class="st0" d="M67.1,109.4c1.1,0.4,0.7,0.2,1-0.9C67.4,108.2,66.4,109.1,67.1,109.4z"/>
</g>
</svg>
